<?xml version="1.0" encoding="utf-8"?>
<!-- Generator: Adobe Illustrator 16.0.0, SVG Export Plug-In . SVG Version: 6.00 Build 0)  -->
<!DOCTYPE svg PUBLIC "-//W3C//DTD SVG 1.1//EN" "http://www.w3.org/Graphics/SVG/1.1/DTD/svg11.dtd" [
	<!ENTITY ns_flows "http://ns.adobe.com/Flows/1.0/">
	<!ENTITY ns_extend "http://ns.adobe.com/Extensibility/1.0/">
	<!ENTITY ns_ai "http://ns.adobe.com/AdobeIllustrator/10.0/">
	<!ENTITY ns_graphs "http://ns.adobe.com/Graphs/1.0/">
]>
<svg version="1.1" id="Layer_1" xmlns:x="&ns_extend;" xmlns:i="&ns_ai;" xmlns:graph="&ns_graphs;"
	 xmlns="http://www.w3.org/2000/svg" xmlns:xlink="http://www.w3.org/1999/xlink" xmlns:a="http://ns.adobe.com/AdobeSVGViewerExtensions/3.0/"
	 x="0px" y="0px" width="253.5px" height="80px" viewBox="0 0 253.5 80" style="enable-background:new 0 0 253.5 80;"
	 xml:space="preserve">
<style type="text/css">
<![CDATA[
	.st0{fill:#231F20;}
	.st1{fill:none;}
]]>
</style>
<g>
	<path class="st0" d="M108.321,42.925c0,0.505-0.291,0.754-0.874,0.754c-0.282,0-0.484-0.034-0.604-0.104
		c-0.25-0.146-0.374-0.363-0.374-0.65c0-0.242,0.11-0.438,0.328-0.589c0.098-0.072,0.15-0.118,0.15-0.137
		c0-0.021-0.062-0.074-0.185-0.159c-0.196-0.106-0.294-0.299-0.294-0.581c0-0.323,0.124-0.54,0.371-0.651
		c0.07-0.026,0.107-0.053,0.107-0.083c0-0.03-0.062-0.081-0.185-0.151c-0.196-0.11-0.294-0.307-0.294-0.589
		c0-0.304,0.13-0.52,0.387-0.65c0.062-0.031,0.092-0.062,0.092-0.09c0-0.025-0.056-0.074-0.167-0.145
		c-0.207-0.125-0.312-0.328-0.312-0.606c0-0.296,0.135-0.518,0.402-0.664c0.06-0.031,0.09-0.056,0.09-0.075
		c0-0.014-0.025-0.04-0.076-0.077c-0.276-0.141-0.416-0.368-0.416-0.678c0-0.299,0.12-0.506,0.357-0.622
		c0.078-0.041,0.121-0.08,0.121-0.111c-0.007-0.026-0.017-0.046-0.03-0.063l-0.196-0.119c-0.168-0.102-0.252-0.289-0.252-0.559
		c0-0.496,0.291-0.742,0.874-0.742c0.289,0,0.492,0.035,0.613,0.105c0.244,0.141,0.365,0.352,0.365,0.637
		c0,0.296-0.135,0.514-0.4,0.649c-0.051,0.029-0.076,0.06-0.076,0.092c0,0.022,0.06,0.07,0.178,0.142
		c0.201,0.12,0.299,0.327,0.299,0.618c0,0.257-0.139,0.476-0.414,0.65c-0.037,0.012-0.056,0.03-0.062,0.062
		c0,0.049,0.037,0.089,0.108,0.118c0.245,0.117,0.368,0.318,0.368,0.608c0,0.305-0.098,0.513-0.299,0.618
		c-0.118,0.064-0.178,0.12-0.178,0.16c0.007,0.024,0.017,0.046,0.032,0.06l0.146,0.077c0.201,0.111,0.299,0.311,0.299,0.604
		c0,0.247-0.089,0.437-0.271,0.573c-0.137,0.077-0.206,0.127-0.206,0.15c0,0.026,0.054,0.08,0.161,0.161
		c0.211,0.109,0.315,0.307,0.315,0.589c0,0.277-0.098,0.475-0.299,0.597c-0.118,0.074-0.178,0.122-0.178,0.144
		c0,0.03,0.007,0.049,0.017,0.06l0.236,0.16C108.247,42.516,108.321,42.683,108.321,42.925z M113.499,44.412
		c0,0.218-0.07,0.396-0.211,0.534c-0.142,0.139-0.326,0.206-0.553,0.206h-3.976c-0.231,0-0.425-0.067-0.58-0.206
		c-0.151-0.139-0.229-0.312-0.229-0.519c0-0.221,0.086-0.402,0.25-0.543c0.137-0.112,0.406-0.167,0.808-0.167h3.698
		c0.23,0,0.42,0.065,0.568,0.195C113.425,44.044,113.499,44.211,113.499,44.412z"/>
	<path class="st0" d="M118.903,44.398c0,0.223-0.078,0.403-0.231,0.544c-0.152,0.142-0.352,0.21-0.594,0.21h-3.203
		c-0.206,0-0.382-0.068-0.525-0.21c-0.144-0.141-0.216-0.312-0.216-0.515c0-0.18,0.064-0.346,0.193-0.489
		c0.127-0.146,0.27-0.221,0.427-0.221h1.006c0.104,0,0.165-0.009,0.179-0.031c0.018-0.02,0.025-0.042,0.025-0.065
		c0-0.037-0.051-0.092-0.15-0.169c-0.146-0.12-0.222-0.291-0.222-0.514c0-0.271,0.139-0.487,0.414-0.648
		c0.053-0.031,0.078-0.056,0.078-0.077c-0.004-0.029-0.017-0.046-0.032-0.046l-0.21-0.143c-0.167-0.091-0.25-0.274-0.25-0.552
		c0-0.291,0.127-0.508,0.383-0.649h0.031c0.042-0.03,0.062-0.058,0.062-0.084c0-0.024-0.068-0.08-0.21-0.166
		c-0.176-0.117-0.266-0.313-0.266-0.591c0-0.284,0.117-0.491,0.354-0.621c0.081-0.035,0.122-0.066,0.122-0.092
		c0-0.018-0.009-0.04-0.029-0.06l-0.189-0.129c-0.17-0.113-0.257-0.303-0.257-0.56c0-0.282,0.095-0.478,0.287-0.583
		c0.126-0.07,0.188-0.124,0.188-0.159c0-0.015-0.004-0.029-0.014-0.044l-0.189-0.107c-0.182-0.11-0.272-0.302-0.272-0.575
		c0-0.186,0.056-0.344,0.168-0.47l0.174-0.181c0.01-0.004,0.015-0.021,0.015-0.046c0-0.04-0.028-0.062-0.084-0.062h-1.02
		c-0.201,0-0.373-0.07-0.515-0.211c-0.143-0.144-0.212-0.316-0.212-0.518c0-0.204,0.071-0.379,0.215-0.521
		c0.146-0.143,0.325-0.215,0.542-0.215h3.112c0.601,0,0.901,0.242,0.901,0.724c0,0.496-0.287,0.742-0.855,0.742h-0.855
		c-0.078,0-0.12,0.022-0.12,0.062c0,0.025,0.062,0.092,0.187,0.196c0.124,0.106,0.186,0.273,0.186,0.5
		c0,0.251-0.143,0.474-0.431,0.665c-0.031,0.031-0.046,0.057-0.046,0.077c0,0.023,0.03,0.049,0.091,0.075
		c0.256,0.11,0.386,0.324,0.386,0.635c0,0.284-0.094,0.48-0.28,0.589l-0.15,0.1c-0.022,0.016-0.031,0.035-0.031,0.061
		c0,0.025,0.064,0.08,0.196,0.166c0.176,0.116,0.266,0.308,0.266,0.575c0,0.277-0.12,0.489-0.355,0.635
		c-0.075,0.042-0.116,0.07-0.121,0.092c0,0.029,0.01,0.058,0.03,0.084l0.15,0.074c0.197,0.096,0.296,0.294,0.296,0.59
		c0,0.287-0.14,0.514-0.416,0.681c-0.03,0.021-0.046,0.041-0.046,0.06c0,0.037,0.031,0.068,0.09,0.093
		c0.247,0.131,0.372,0.344,0.372,0.635c0,0.223-0.06,0.385-0.178,0.488c-0.12,0.104-0.178,0.162-0.178,0.179
		c0,0.073,0.057,0.112,0.175,0.112h0.93C118.661,43.718,118.903,43.944,118.903,44.398z"/>
	<path class="st0" d="M125.697,40.029c0,0.216-0.077,0.397-0.227,0.54c-0.15,0.145-0.343,0.216-0.574,0.216h-3.221
		c-0.02,0.026-0.028,0.047-0.028,0.067c0,0.004,0.005,0.016,0.015,0.029l0.189,0.183c0.11,0.105,0.165,0.256,0.165,0.45
		c0,0.305-0.135,0.519-0.405,0.649c-0.062,0.044-0.093,0.075-0.093,0.091c0,0.02,0.014,0.044,0.044,0.074l0.145,0.099
		c0.186,0.1,0.278,0.289,0.278,0.564c0,0.298-0.118,0.507-0.361,0.634c-0.081,0.046-0.12,0.083-0.12,0.111
		c0,0.03,0.028,0.062,0.089,0.09c0.263,0.117,0.393,0.328,0.393,0.634c0,0.492-0.278,0.738-0.837,0.738
		c-0.308,0-0.521-0.029-0.636-0.093c-0.248-0.135-0.37-0.346-0.37-0.633c0-0.267,0.107-0.469,0.325-0.605
		c0.111-0.069,0.165-0.113,0.165-0.136c0-0.028-0.07-0.088-0.211-0.173c-0.186-0.11-0.279-0.302-0.279-0.575
		c0-0.268,0.104-0.463,0.31-0.591l0.152-0.088c0.02-0.021,0.028-0.037,0.028-0.047c0-0.02-0.009-0.041-0.028-0.06l-0.169-0.091
		c-0.196-0.141-0.293-0.344-0.293-0.605c0-0.271,0.104-0.468,0.31-0.589c0.121-0.075,0.181-0.125,0.181-0.144
		c-0.005-0.026-0.015-0.04-0.03-0.045l-0.155-0.105c-0.203-0.135-0.305-0.333-0.305-0.59c0-0.307,0.127-0.524,0.381-0.649
		c0.074-0.035,0.109-0.066,0.109-0.09c0-0.037-0.03-0.066-0.091-0.09c-0.268-0.123-0.399-0.347-0.399-0.675
		c0-0.307,0.139-0.525,0.412-0.649c0.053-0.017,0.078-0.04,0.078-0.077c0-0.014-0.078-0.075-0.233-0.181
		c-0.171-0.115-0.257-0.3-0.257-0.56c0-0.207,0.089-0.394,0.267-0.559c0.133-0.121,0.381-0.182,0.747-0.182
		c0.573,0,0.86,0.247,0.86,0.741c0,0.268-0.146,0.495-0.438,0.682c-0.024,0.014-0.041,0.034-0.046,0.059
		c0,0.026,0.017,0.046,0.048,0.06c0.291,0.158,0.437,0.387,0.437,0.689c0,0.211-0.06,0.37-0.182,0.477l-0.188,0.175v0.028
		c0,0.025,0.009,0.044,0.025,0.057c0.019,0.014,0.069,0.02,0.155,0.02h2.971C125.398,39.304,125.697,39.546,125.697,40.029z
		 M126.455,35.571c0,0.499-0.269,0.747-0.802,0.747h-3.22c-0.227,0-0.416-0.069-0.562-0.208c-0.152-0.138-0.224-0.313-0.224-0.525
		c0-0.503,0.296-0.756,0.891-0.756h3.175C126.206,34.829,126.455,35.077,126.455,35.571z"/>
	<path class="st0" d="M133.21,39.985c0,0.222-0.076,0.399-0.227,0.535c-0.152,0.137-0.345,0.205-0.583,0.205h-2.925
		c-0.165,0-0.26,0.013-0.286,0.039c-0.015,0.004-0.021,0.018-0.021,0.044c0,0.024,0.034,0.062,0.104,0.106
		c0.167,0.146,0.249,0.336,0.249,0.573c0,0.277-0.108,0.478-0.324,0.597c-0.102,0.062-0.15,0.104-0.15,0.129
		c0,0.021,0.049,0.062,0.15,0.123c0.216,0.13,0.324,0.331,0.324,0.603c0,0.495-0.282,0.74-0.853,0.74
		c-0.657,0-0.983-0.24-0.983-0.726c0-0.286,0.142-0.509,0.429-0.663c0.043-0.042,0.062-0.067,0.062-0.077
		c0-0.029-0.062-0.076-0.186-0.143c-0.203-0.1-0.305-0.299-0.305-0.598c0-0.327,0.127-0.541,0.382-0.633
		c0.073-0.031,0.108-0.063,0.108-0.1c-0.005-0.024-0.014-0.04-0.03-0.044l-0.211-0.121c-0.166-0.101-0.249-0.297-0.249-0.589
		c0-0.271,0.106-0.474,0.318-0.604l0.128-0.062c0.019-0.01,0.03-0.024,0.03-0.046c0-0.02-0.012-0.042-0.03-0.06l-0.203-0.144
		c-0.164-0.115-0.243-0.302-0.243-0.559c0-0.262,0.095-0.451,0.287-0.569l0.159-0.097c0.019-0.009,0.03-0.024,0.03-0.046
		c0-0.04-0.005-0.059-0.017-0.059l-0.233-0.153c-0.15-0.106-0.227-0.282-0.227-0.529c0-0.503,0.306-0.756,0.921-0.756
		c0.612,0,0.915,0.249,0.915,0.743c0,0.251-0.074,0.432-0.229,0.543l-0.217,0.153c-0.021,0.009-0.029,0.023-0.029,0.045
		c0,0.019,0.008,0.04,0.029,0.06l0.181,0.114c0.177,0.101,0.265,0.29,0.265,0.566c0,0.264-0.095,0.455-0.28,0.575
		c-0.049,0.036-0.073,0.069-0.073,0.1c0,0.049,0.102,0.073,0.308,0.073h2.972C132.956,39.273,133.21,39.511,133.21,39.985z
		 M134.677,35.552c0,0.18-0.074,0.349-0.22,0.506c-0.146,0.158-0.301,0.236-0.46,0.236h-4.036c-0.231,0-0.422-0.067-0.571-0.205
		c-0.149-0.138-0.222-0.313-0.222-0.524c0-0.199,0.069-0.373,0.21-0.519c0.142-0.144,0.309-0.218,0.498-0.218h4.029
		c0.218,0,0.4,0.07,0.549,0.208C134.602,35.174,134.677,35.345,134.677,35.552z M134.692,44.412c0,0.188-0.074,0.357-0.217,0.511
		c-0.143,0.155-0.302,0.229-0.479,0.229h-3.977c-0.568,0-0.853-0.24-0.853-0.725c0-0.188,0.067-0.352,0.203-0.494
		s0.289-0.216,0.461-0.216l4.354,0.03c0.137,0.02,0.253,0.098,0.356,0.234C134.642,44.119,134.692,44.262,134.692,44.412z"/>
	<path class="st0" d="M137.678,38.563c0,0.262-0.132,0.468-0.397,0.612c-0.104,0.064-0.278,0.098-0.521,0.098h-0.129
		c-0.229,0-0.419-0.07-0.574-0.216c-0.154-0.143-0.229-0.319-0.229-0.532c0-0.261,0.092-0.45,0.278-0.566l0.164-0.114
		c0.022-0.02,0.031-0.035,0.031-0.046c-0.004-0.025-0.014-0.044-0.031-0.059l-0.196-0.123c-0.165-0.105-0.246-0.292-0.246-0.56
		c0-0.494,0.294-0.741,0.886-0.741c0.644,0,0.965,0.251,0.965,0.756c0,0.262-0.1,0.454-0.303,0.575l-0.158,0.092
		c-0.021,0.019-0.031,0.039-0.031,0.059c0.005,0.015,0.011,0.031,0.016,0.046l0.223,0.143
		C137.592,38.095,137.678,38.287,137.678,38.563z M137.678,42.938c0,0.288-0.129,0.5-0.384,0.637c-0.113,0.06-0.287,0.09-0.527,0.09
		c-0.275,0-0.479-0.039-0.611-0.12c-0.221-0.137-0.328-0.323-0.328-0.561c0-0.514,0.291-0.771,0.879-0.771
		c0.275,0,0.475,0.035,0.604,0.107C137.554,42.456,137.678,42.662,137.678,42.938z M142.076,39.985c0,0.214-0.073,0.396-0.22,0.538
		c-0.146,0.146-0.329,0.216-0.551,0.216h-3.055c-0.639,0-0.958-0.246-0.958-0.741c0-0.271,0.124-0.483,0.378-0.633
		c0.1-0.062,0.264-0.092,0.49-0.092h3.145c0.222,0,0.404,0.069,0.551,0.206C142.003,39.614,142.076,39.782,142.076,39.985z
		 M142.076,44.409c0,0.497-0.272,0.743-0.816,0.743h-3.206c-0.215,0-0.396-0.069-0.545-0.21c-0.146-0.142-0.216-0.315-0.216-0.52
		c0-0.281,0.116-0.491,0.354-0.629c0.115-0.071,0.323-0.107,0.627-0.107h3c0.231,0,0.425,0.068,0.575,0.203
		S142.076,44.196,142.076,44.409z M142.076,35.554c0,0.51-0.352,0.764-1.052,0.764c-0.109,0-0.193-0.005-0.247-0.016h-2.632
		c-0.556,0-0.831-0.244-0.831-0.731c0-0.293,0.125-0.504,0.37-0.635c0.136-0.072,0.352-0.107,0.649-0.107h2.66
		c0.372,0,0.621,0.035,0.74,0.107C141.961,35.072,142.076,35.278,142.076,35.554z M143.572,37.045c0,0.291-0.128,0.509-0.387,0.65
		c-0.118,0.06-0.3,0.091-0.546,0.091c-0.612,0-0.919-0.249-0.919-0.741c0-0.485,0.298-0.727,0.888-0.727
		C143.25,36.318,143.572,36.56,143.572,37.045z M143.572,42.938c0,0.218-0.083,0.409-0.252,0.575
		c-0.113,0.112-0.361,0.165-0.75,0.165c-0.566,0-0.85-0.24-0.85-0.726c0-0.282,0.107-0.482,0.325-0.604
		c0.104-0.056,0.159-0.095,0.159-0.12c0-0.041-0.021-0.065-0.062-0.074c-0.282-0.159-0.423-0.375-0.423-0.652
		c0-0.499,0.323-0.748,0.973-0.748c0.585,0,0.879,0.245,0.879,0.732c0,0.268-0.093,0.457-0.278,0.568l-0.173,0.111
		c-0.027,0.021-0.04,0.037-0.04,0.046c0,0.046,0.045,0.086,0.135,0.123C143.454,42.444,143.572,42.647,143.572,42.938z"/>
	<path class="st0" d="M152.265,35.552c0,0.496-0.291,0.742-0.869,0.742h-2.086c-0.238,0-0.354,0.026-0.354,0.077
		c0,0.009,0.005,0.02,0.014,0.03l0.186,0.181c0.108,0.107,0.162,0.267,0.162,0.485c0,0.307-0.125,0.518-0.377,0.635
		c-0.066,0.032-0.098,0.06-0.098,0.09c0,0.031,0.005,0.051,0.015,0.06l0.191,0.128c0.18,0.119,0.269,0.304,0.269,0.562
		c0,0.307-0.125,0.517-0.375,0.627c-0.077,0.046-0.115,0.083-0.115,0.112c0,0.032,0.038,0.063,0.115,0.092
		c0.25,0.112,0.375,0.328,0.375,0.652c0,0.282-0.135,0.497-0.406,0.65c-0.057,0.029-0.084,0.06-0.084,0.09
		c0,0.024,0.034,0.054,0.098,0.084c0.263,0.113,0.393,0.335,0.393,0.664c0,0.31-0.11,0.514-0.331,0.622
		c-0.107,0.044-0.159,0.079-0.159,0.105c0,0.035,0.041,0.068,0.127,0.105c0.242,0.122,0.363,0.332,0.363,0.636
		c0,0.266-0.09,0.458-0.274,0.575c-0.133,0.084-0.2,0.144-0.2,0.173c0,0.026,0.036,0.057,0.111,0.091
		c0.242,0.116,0.363,0.328,0.363,0.636c0,0.493-0.301,0.741-0.902,0.741c-0.27,0-0.465-0.033-0.592-0.104
		c-0.238-0.144-0.358-0.35-0.358-0.621c0-0.283,0.097-0.48,0.29-0.591l0.164-0.09c0.031-0.021,0.046-0.035,0.046-0.045
		c0-0.041-0.015-0.07-0.046-0.085l-0.181-0.104c-0.181-0.112-0.273-0.305-0.273-0.575c0-0.278,0.107-0.479,0.321-0.604
		c0.119-0.068,0.179-0.105,0.179-0.122c-0.006-0.025-0.015-0.047-0.032-0.061l-0.225-0.143c-0.162-0.097-0.243-0.276-0.243-0.539
		c0-0.271,0.093-0.463,0.273-0.576l0.181-0.104c0.026-0.014,0.04-0.039,0.046-0.068c0-0.021-0.078-0.08-0.234-0.181
		c-0.177-0.117-0.266-0.309-0.266-0.577c0-0.302,0.139-0.518,0.416-0.65c0.058-0.036,0.084-0.06,0.084-0.077
		c-0.005-0.029-0.02-0.051-0.046-0.058l-0.143-0.084c-0.207-0.11-0.312-0.31-0.312-0.597c0-0.279,0.1-0.474,0.296-0.59
		c0.126-0.075,0.19-0.129,0.19-0.16c0-0.03-0.011-0.044-0.032-0.044l-0.158-0.106c-0.196-0.141-0.296-0.333-0.296-0.575
		c0-0.243,0.094-0.438,0.28-0.592c0.061-0.032,0.091-0.069,0.091-0.104c0-0.051-0.103-0.077-0.309-0.077h-2.245
		c-0.222,0-0.409-0.067-0.561-0.205c-0.15-0.138-0.226-0.313-0.226-0.524c0-0.213,0.076-0.391,0.23-0.528
		c0.153-0.138,0.351-0.208,0.593-0.208h6.077c0.211,0,0.374,0.031,0.482,0.091C152.136,35.066,152.265,35.275,152.265,35.552z"/>
	<path class="st0" d="M155.166,38.492c0,0.304-0.124,0.521-0.373,0.652c-0.116,0.067-0.319,0.1-0.608,0.1
		c-0.585,0-0.879-0.246-0.879-0.736c0-0.304,0.137-0.521,0.406-0.653c0.052-0.024,0.079-0.055,0.079-0.09
		c-0.005-0.029-0.025-0.056-0.061-0.074c-0.281-0.184-0.425-0.411-0.425-0.684c0-0.277,0.105-0.475,0.312-0.592
		c0.116-0.066,0.174-0.113,0.174-0.143c0-0.021-0.037-0.051-0.113-0.092c-0.247-0.132-0.372-0.343-0.372-0.637
		c0-0.506,0.282-0.759,0.841-0.759c0.302,0,0.509,0.03,0.619,0.09c0.258,0.147,0.387,0.364,0.387,0.653
		c0,0.298-0.108,0.499-0.325,0.606c-0.106,0.07-0.16,0.117-0.16,0.138c0.01,0.029,0.023,0.047,0.039,0.052l0.137,0.09
		c0.216,0.117,0.323,0.319,0.323,0.607c0,0.299-0.134,0.516-0.4,0.652c-0.05,0.026-0.075,0.051-0.075,0.077
		c0,0.036,0.042,0.075,0.12,0.122C155.048,38.003,155.166,38.209,155.166,38.492z M155.196,42.938c0,0.283-0.127,0.5-0.386,0.65
		c-0.125,0.07-0.323,0.106-0.59,0.106c-0.587,0-0.885-0.243-0.885-0.725c0-0.293,0.127-0.51,0.379-0.65
		c0.108-0.062,0.296-0.091,0.568-0.091C154.894,42.229,155.196,42.466,155.196,42.938z M161.092,42.907
		c0,0.506-0.325,0.758-0.976,0.758c-0.562,0-0.847-0.245-0.847-0.737c0-0.296,0.113-0.502,0.341-0.617
		c0.082-0.037,0.119-0.074,0.119-0.104c0-0.019-0.009-0.039-0.027-0.06l-0.137-0.082c-0.208-0.11-0.31-0.316-0.31-0.618
		c0-0.224,0.104-0.425,0.316-0.601c0.025-0.02,0.038-0.045,0.038-0.075c-0.004-0.005-0.008-0.011-0.011-0.02
		c-0.002-0.006-0.005-0.016-0.005-0.025h-0.029h-0.174h-3.841c-0.201,0-0.374-0.076-0.521-0.227c-0.146-0.152-0.22-0.329-0.22-0.531
		c0-0.195,0.07-0.37,0.208-0.517c0.14-0.149,0.296-0.223,0.474-0.223h4.043c0.04,0,0.06-0.021,0.06-0.066
		c0-0.037-0.034-0.072-0.103-0.107c-0.178-0.136-0.269-0.328-0.269-0.573c0-0.287,0.108-0.485,0.32-0.589
		c0.115-0.055,0.172-0.105,0.172-0.15c0-0.017-0.01-0.032-0.03-0.046l-0.21-0.144c-0.167-0.112-0.252-0.296-0.252-0.55
		c0-0.294,0.113-0.496,0.337-0.608c0.104-0.055,0.155-0.098,0.155-0.125c-0.005-0.026-0.014-0.042-0.03-0.046l-0.137-0.092
		c-0.215-0.146-0.325-0.348-0.325-0.603c0-0.496,0.3-0.742,0.893-0.742c0.298,0,0.506,0.04,0.619,0.121
		c0.218,0.15,0.326,0.353,0.326,0.604c0,0.298-0.116,0.514-0.354,0.649c-0.072,0.026-0.105,0.059-0.105,0.092
		c0,0.04,0.03,0.078,0.093,0.113c0.265,0.141,0.397,0.359,0.397,0.65c0,0.278-0.11,0.478-0.334,0.604
		c-0.104,0.055-0.156,0.097-0.156,0.123c0,0.039,0.025,0.063,0.076,0.074c0.275,0.135,0.414,0.357,0.414,0.666
		c0,0.287-0.123,0.5-0.366,0.635c-0.072,0.046-0.108,0.084-0.108,0.112c0,0.025,0.018,0.05,0.059,0.076
		c0.277,0.172,0.416,0.393,0.416,0.664c0,0.239-0.103,0.436-0.31,0.59l-0.121,0.091c-0.03,0.017-0.044,0.032-0.044,0.046
		c0,0.02,0.009,0.04,0.028,0.06l0.22,0.159c0.149,0.11,0.227,0.291,0.227,0.545c0,0.267-0.081,0.446-0.243,0.534l-0.218,0.162
		c-0.005,0.004-0.009,0.012-0.014,0.028c0,0.029,0.044,0.064,0.136,0.106C160.98,42.385,161.092,42.59,161.092,42.907z
		 M159.625,44.398c0,0.206-0.071,0.384-0.215,0.531c-0.144,0.151-0.319,0.223-0.525,0.223h-3.271c-0.222,0-0.409-0.067-0.56-0.206
		c-0.151-0.139-0.227-0.312-0.227-0.519c0-0.191,0.071-0.357,0.218-0.497c0.147-0.141,0.315-0.213,0.506-0.213l3.438-0.022
		c0.164-0.012,0.31,0.06,0.439,0.205C159.56,44.044,159.625,44.211,159.625,44.398z"/>
	<path class="st0" d="M164.796,42.925c0,0.505-0.292,0.754-0.873,0.754c-0.283,0-0.486-0.034-0.607-0.104
		c-0.247-0.146-0.372-0.363-0.372-0.65c0-0.242,0.108-0.438,0.326-0.589c0.102-0.072,0.15-0.118,0.15-0.137
		c0-0.021-0.062-0.074-0.181-0.159c-0.196-0.106-0.296-0.299-0.296-0.581c0-0.323,0.123-0.54,0.372-0.651
		c0.069-0.026,0.104-0.053,0.104-0.083c0-0.03-0.062-0.081-0.181-0.151c-0.196-0.11-0.296-0.307-0.296-0.589
		c0-0.304,0.128-0.52,0.386-0.65c0.061-0.031,0.091-0.062,0.091-0.09c0-0.025-0.054-0.074-0.167-0.145
		c-0.205-0.125-0.31-0.328-0.31-0.606c0-0.296,0.133-0.518,0.401-0.664c0.059-0.031,0.091-0.056,0.091-0.075
		c0-0.014-0.024-0.04-0.077-0.077c-0.278-0.141-0.415-0.368-0.415-0.678c0-0.299,0.119-0.506,0.355-0.622
		c0.079-0.041,0.121-0.08,0.121-0.111c-0.005-0.026-0.017-0.046-0.03-0.063l-0.195-0.119c-0.169-0.102-0.251-0.289-0.251-0.559
		c0-0.496,0.291-0.742,0.872-0.742c0.291,0,0.494,0.035,0.617,0.105c0.241,0.141,0.363,0.352,0.363,0.637
		c0,0.296-0.134,0.514-0.399,0.649c-0.05,0.029-0.077,0.06-0.077,0.092c0,0.022,0.059,0.07,0.177,0.142
		c0.2,0.12,0.3,0.327,0.3,0.618c0,0.257-0.139,0.476-0.414,0.65c-0.035,0.012-0.059,0.03-0.062,0.062
		c0,0.049,0.035,0.089,0.108,0.118c0.245,0.117,0.368,0.318,0.368,0.608c0,0.305-0.1,0.513-0.3,0.618
		c-0.118,0.064-0.177,0.12-0.177,0.16c0.004,0.024,0.017,0.046,0.031,0.06l0.146,0.077c0.2,0.111,0.3,0.311,0.3,0.604
		c0,0.247-0.09,0.437-0.269,0.573c-0.139,0.077-0.208,0.127-0.208,0.15c0,0.026,0.054,0.08,0.162,0.161
		c0.208,0.109,0.314,0.307,0.314,0.589c0,0.277-0.1,0.475-0.3,0.597c-0.118,0.074-0.177,0.122-0.177,0.144
		c0,0.03,0.004,0.049,0.017,0.06l0.237,0.16C164.72,42.516,164.796,42.683,164.796,42.925z M169.975,44.412
		c0,0.218-0.072,0.396-0.214,0.534c-0.141,0.139-0.324,0.206-0.551,0.206h-3.978c-0.23,0-0.423-0.067-0.577-0.206
		s-0.229-0.312-0.229-0.519c0-0.221,0.081-0.402,0.248-0.543c0.137-0.112,0.406-0.167,0.811-0.167h3.694
		c0.231,0,0.422,0.065,0.572,0.195C169.897,44.044,169.975,44.211,169.975,44.412z"/>
	<path class="st0" d="M176.632,39.985c0,0.222-0.075,0.399-0.227,0.535c-0.151,0.137-0.348,0.205-0.581,0.205h-2.926
		c-0.166,0-0.262,0.013-0.288,0.039c-0.015,0.004-0.024,0.018-0.024,0.044c0,0.024,0.037,0.062,0.107,0.106
		c0.166,0.146,0.249,0.336,0.249,0.573c0,0.277-0.108,0.478-0.325,0.597c-0.1,0.062-0.15,0.104-0.15,0.129
		c0,0.021,0.051,0.062,0.15,0.123c0.217,0.13,0.325,0.331,0.325,0.603c0,0.495-0.284,0.74-0.852,0.74
		c-0.656,0-0.984-0.24-0.984-0.726c0-0.286,0.143-0.509,0.431-0.663c0.039-0.042,0.062-0.067,0.062-0.077
		c0-0.029-0.062-0.076-0.188-0.143c-0.204-0.1-0.304-0.299-0.304-0.598c0-0.327,0.127-0.541,0.384-0.633
		c0.071-0.031,0.108-0.063,0.108-0.1c-0.006-0.024-0.018-0.04-0.032-0.044l-0.21-0.121c-0.167-0.101-0.25-0.297-0.25-0.589
		c0-0.271,0.107-0.474,0.32-0.604l0.124-0.062c0.021-0.01,0.032-0.024,0.032-0.046c0-0.02-0.011-0.042-0.03-0.06l-0.206-0.144
		c-0.159-0.115-0.24-0.302-0.24-0.559c0-0.262,0.095-0.451,0.289-0.569l0.157-0.097c0.02-0.009,0.03-0.024,0.03-0.046
		c0-0.04-0.005-0.059-0.017-0.059l-0.233-0.153c-0.151-0.106-0.227-0.282-0.227-0.529c0-0.503,0.308-0.756,0.921-0.756
		c0.61,0,0.915,0.249,0.915,0.743c0,0.251-0.074,0.432-0.226,0.543l-0.22,0.153c-0.02,0.009-0.03,0.023-0.03,0.045
		c0,0.019,0.011,0.04,0.03,0.06l0.182,0.114c0.176,0.101,0.264,0.29,0.264,0.566c0,0.264-0.092,0.455-0.279,0.575
		c-0.051,0.036-0.077,0.069-0.077,0.1c0,0.049,0.106,0.073,0.312,0.073h2.97C176.377,39.273,176.632,39.511,176.632,39.985z
		 M178.098,35.552c0,0.18-0.072,0.349-0.219,0.506c-0.146,0.158-0.301,0.236-0.462,0.236h-4.035c-0.233,0-0.421-0.067-0.571-0.205
		c-0.149-0.138-0.225-0.313-0.225-0.524c0-0.199,0.072-0.373,0.214-0.519c0.139-0.144,0.308-0.218,0.498-0.218h4.03
		c0.215,0,0.397,0.07,0.548,0.208C178.025,35.174,178.098,35.345,178.098,35.552z M178.113,44.412c0,0.188-0.072,0.357-0.216,0.511
		c-0.145,0.155-0.302,0.229-0.48,0.229h-3.975c-0.569,0-0.856-0.24-0.856-0.725c0-0.188,0.069-0.352,0.206-0.494
		c0.135-0.143,0.29-0.216,0.461-0.216l4.354,0.03c0.136,0.02,0.253,0.098,0.354,0.234C178.062,44.119,178.113,44.262,178.113,44.412
		z"/>
	<path class="st0" d="M187.311,37c0,0.219-0.075,0.403-0.231,0.55c-0.152,0.146-0.345,0.218-0.575,0.218h-0.992
		c-0.04,0-0.061,0.021-0.061,0.062c0,0.024,0.042,0.067,0.128,0.129c0.172,0.121,0.258,0.305,0.258,0.552
		c0,0.278-0.097,0.469-0.289,0.574l-0.187,0.115c-0.015,0.009-0.023,0.028-0.023,0.058c0,0.037,0.045,0.07,0.132,0.107
		c0.244,0.13,0.367,0.331,0.367,0.603c0,0.299-0.106,0.509-0.319,0.637c-0.119,0.05-0.18,0.095-0.18,0.135
		c0.005,0.016,0.014,0.031,0.023,0.046l0.166,0.113c0.185,0.117,0.279,0.313,0.279,0.589c0,0.273-0.086,0.464-0.264,0.568
		c-0.136,0.086-0.205,0.144-0.205,0.174c0,0.019,0.074,0.081,0.22,0.189c0.167,0.115,0.249,0.298,0.249,0.552
		c0,0.287-0.099,0.481-0.295,0.589c-0.113,0.075-0.174,0.127-0.174,0.158c0,0.026,0.061,0.076,0.174,0.15
		c0.196,0.132,0.295,0.322,0.295,0.574c0,0.505-0.305,0.757-0.915,0.757c-0.265,0-0.456-0.033-0.574-0.104
		c-0.235-0.152-0.356-0.368-0.356-0.65c0-0.298,0.126-0.503,0.371-0.619c0.077-0.034,0.115-0.069,0.115-0.104
		c0-0.03-0.038-0.062-0.115-0.1c-0.245-0.108-0.371-0.325-0.371-0.647c0-0.264,0.1-0.458,0.297-0.589l0.144-0.093
		c0.024-0.013,0.041-0.035,0.046-0.058c-0.005-0.03-0.016-0.046-0.03-0.046l-0.189-0.129c-0.178-0.115-0.267-0.305-0.267-0.563
		c0-0.296,0.106-0.495,0.312-0.608c0.105-0.067,0.159-0.117,0.159-0.143c0-0.028-0.054-0.074-0.159-0.135
		c-0.205-0.126-0.312-0.332-0.312-0.62c0-0.311,0.135-0.527,0.402-0.647c0.055-0.025,0.084-0.05,0.084-0.076
		c0-0.036-0.074-0.098-0.22-0.188c-0.178-0.104-0.267-0.297-0.267-0.574c0-0.302,0.121-0.508,0.356-0.62
		c0.087-0.049,0.13-0.084,0.13-0.104c0-0.04-0.043-0.082-0.13-0.121c-0.235-0.121-0.356-0.332-0.356-0.635
		c0-0.259,0.096-0.457,0.28-0.587l0.176-0.092c0.02-0.019,0.03-0.04,0.03-0.066c-0.005-0.026-0.016-0.042-0.03-0.046l-0.159-0.09
		c-0.197-0.117-0.297-0.317-0.297-0.603c0-0.494,0.28-0.741,0.842-0.741c0.382,0,0.65,0.072,0.803,0.216
		c0.155,0.146,0.231,0.318,0.231,0.519c0,0.229-0.099,0.423-0.294,0.581c-0.05,0.049-0.076,0.086-0.076,0.106
		c0,0.04,0.066,0.06,0.195,0.06h0.915c0.198,0,0.368,0.07,0.514,0.212C187.238,36.634,187.311,36.802,187.311,37z M188.794,38.494
		c0,0.511-0.301,0.764-0.9,0.764c-0.264,0-0.452-0.037-0.567-0.113c-0.261-0.155-0.393-0.368-0.393-0.634
		c0-0.494,0.289-0.742,0.869-0.742C188.462,37.769,188.794,38.012,188.794,38.494z M191.763,44.458c0,0.294-0.129,0.51-0.385,0.648
		c-0.111,0.063-0.289,0.093-0.537,0.093c-0.619,0-0.93-0.248-0.93-0.741c0-0.286,0.112-0.494,0.34-0.619
		c0.091-0.049,0.135-0.084,0.135-0.106c0-0.028-0.062-0.088-0.194-0.173c-0.187-0.114-0.28-0.307-0.28-0.575
		c0-0.268,0.094-0.455,0.28-0.565l0.166-0.129c0.019-0.01,0.028-0.026,0.028-0.047c-0.005-0.025-0.012-0.044-0.028-0.06
		l-0.189-0.128c-0.171-0.117-0.257-0.306-0.257-0.568c0-0.231,0.082-0.414,0.241-0.542c0.066-0.053,0.104-0.091,0.115-0.122
		c0-0.055-0.049-0.084-0.146-0.084h-0.771c-0.621,0-0.931-0.241-0.931-0.726c0-0.187,0.072-0.356,0.214-0.509
		c0.139-0.153,0.291-0.232,0.453-0.232h1.117c0.041,0,0.062-0.02,0.062-0.06c0-0.044-0.039-0.093-0.115-0.144
		c-0.159-0.111-0.241-0.297-0.241-0.559c0-0.292,0.102-0.492,0.311-0.597c0.11-0.061,0.164-0.104,0.164-0.128
		c0-0.031-0.005-0.051-0.012-0.062l-0.252-0.173c-0.142-0.095-0.211-0.266-0.211-0.506c0-0.293,0.098-0.494,0.294-0.606
		c0.132-0.075,0.197-0.127,0.197-0.158c-0.006-0.026-0.017-0.045-0.03-0.06l-0.155-0.092c-0.204-0.115-0.306-0.311-0.306-0.588
		c0-0.494,0.317-0.741,0.953-0.741c0.6,0,0.898,0.247,0.898,0.741c0,0.282-0.087,0.474-0.256,0.573l-0.191,0.107
		c-0.019,0.02-0.028,0.04-0.028,0.06c0.003,0.031,0.019,0.053,0.045,0.068l0.136,0.077c0.195,0.14,0.295,0.342,0.295,0.603
		c0,0.257-0.143,0.485-0.431,0.681c-0.031,0.032-0.045,0.051-0.045,0.06c0,0.036,0.065,0.094,0.202,0.173
		c0.182,0.109,0.273,0.302,0.273,0.583c0,0.268-0.092,0.46-0.273,0.575l-0.174,0.114c-0.019,0.018-0.028,0.035-0.028,0.044
		c0,0.024,0.054,0.07,0.166,0.138c0.205,0.126,0.31,0.322,0.31,0.589c0,0.265-0.075,0.454-0.228,0.558
		c-0.165,0.112-0.248,0.182-0.248,0.212c0.003,0.03,0.019,0.053,0.045,0.068l0.188,0.122c0.16,0.109,0.242,0.297,0.242,0.558
		c0,0.262-0.1,0.457-0.295,0.581l-0.136,0.1c-0.031,0.016-0.045,0.034-0.045,0.06c0.003,0.031,0.019,0.051,0.045,0.062l0.188,0.127
		c0.16,0.105,0.242,0.284,0.242,0.538c0,0.287-0.1,0.486-0.295,0.604c-0.12,0.074-0.181,0.129-0.181,0.157
		c0,0.027,0.035,0.062,0.104,0.106c0.016,0.005,0.032,0.016,0.046,0.029C191.655,44.014,191.763,44.211,191.763,44.458z"/>
	<path class="st0" d="M199.14,39.985c0,0.222-0.077,0.399-0.228,0.535c-0.15,0.137-0.345,0.205-0.583,0.205h-2.923
		c-0.167,0-0.262,0.013-0.287,0.039c-0.015,0.004-0.022,0.018-0.022,0.044c0,0.024,0.036,0.062,0.104,0.106
		c0.167,0.146,0.251,0.336,0.251,0.573c0,0.277-0.11,0.478-0.324,0.597c-0.104,0.062-0.154,0.104-0.154,0.129
		c0,0.021,0.051,0.062,0.154,0.123c0.214,0.13,0.324,0.331,0.324,0.603c0,0.495-0.286,0.74-0.854,0.74
		c-0.656,0-0.983-0.24-0.983-0.726c0-0.286,0.143-0.509,0.429-0.663c0.042-0.042,0.061-0.067,0.061-0.077
		c0-0.029-0.061-0.076-0.186-0.143c-0.203-0.1-0.304-0.299-0.304-0.598c0-0.327,0.126-0.541,0.382-0.633
		c0.072-0.031,0.107-0.063,0.107-0.1c-0.005-0.024-0.014-0.04-0.028-0.044l-0.213-0.121c-0.166-0.101-0.248-0.297-0.248-0.589
		c0-0.271,0.105-0.474,0.319-0.604l0.126-0.062c0.02-0.01,0.03-0.024,0.03-0.046c0-0.02-0.011-0.042-0.03-0.06l-0.203-0.144
		c-0.164-0.115-0.242-0.302-0.242-0.559c0-0.262,0.096-0.451,0.287-0.569l0.158-0.097c0.02-0.009,0.03-0.024,0.03-0.046
		c0-0.04-0.005-0.059-0.015-0.059l-0.233-0.153c-0.153-0.106-0.228-0.282-0.228-0.529c0-0.503,0.306-0.756,0.922-0.756
		c0.61,0,0.915,0.249,0.915,0.743c0,0.251-0.076,0.432-0.229,0.543l-0.219,0.153c-0.021,0.009-0.031,0.023-0.031,0.045
		c0,0.019,0.01,0.04,0.031,0.06l0.181,0.114c0.179,0.101,0.267,0.29,0.267,0.566c0,0.264-0.095,0.455-0.282,0.575
		c-0.049,0.036-0.073,0.069-0.073,0.1c0,0.049,0.102,0.073,0.31,0.073h2.969C198.885,39.273,199.14,39.511,199.14,39.985z
		 M200.606,35.552c0,0.18-0.074,0.349-0.22,0.506c-0.146,0.158-0.3,0.236-0.462,0.236h-4.036c-0.23,0-0.421-0.067-0.569-0.205
		c-0.151-0.138-0.223-0.313-0.223-0.524c0-0.199,0.069-0.373,0.21-0.519c0.143-0.144,0.308-0.218,0.499-0.218h4.028
		c0.218,0,0.4,0.07,0.549,0.208C200.53,35.174,200.606,35.345,200.606,35.552z M200.621,44.412c0,0.188-0.072,0.357-0.215,0.511
		c-0.145,0.155-0.304,0.229-0.481,0.229h-3.976c-0.568,0-0.853-0.24-0.853-0.725c0-0.188,0.066-0.352,0.203-0.494
		c0.136-0.143,0.291-0.216,0.461-0.216l4.353,0.03c0.138,0.02,0.256,0.098,0.357,0.234C200.57,44.119,200.621,44.262,200.621,44.412
		z"/>
	<path class="st0" d="M209.214,35.552c0,0.496-0.29,0.742-0.87,0.742h-2.085c-0.236,0-0.354,0.026-0.354,0.077
		c0,0.009,0.005,0.02,0.016,0.03l0.186,0.181c0.106,0.107,0.16,0.267,0.16,0.485c0,0.307-0.125,0.518-0.375,0.635
		c-0.066,0.032-0.1,0.06-0.1,0.09c0,0.031,0.006,0.051,0.015,0.06l0.191,0.128c0.179,0.119,0.269,0.304,0.269,0.562
		c0,0.307-0.125,0.517-0.375,0.627c-0.076,0.046-0.113,0.083-0.113,0.112c0,0.032,0.037,0.063,0.113,0.092
		c0.25,0.112,0.375,0.328,0.375,0.652c0,0.282-0.135,0.497-0.405,0.65c-0.058,0.029-0.083,0.06-0.083,0.09
		c0,0.024,0.032,0.054,0.098,0.084c0.261,0.113,0.391,0.335,0.391,0.664c0,0.31-0.108,0.514-0.329,0.622
		c-0.107,0.044-0.159,0.079-0.159,0.105c0,0.035,0.039,0.068,0.124,0.105c0.243,0.122,0.364,0.332,0.364,0.636
		c0,0.266-0.09,0.458-0.273,0.575c-0.136,0.084-0.201,0.144-0.201,0.173c0,0.026,0.038,0.057,0.111,0.091
		c0.242,0.116,0.363,0.328,0.363,0.636c0,0.493-0.299,0.741-0.901,0.741c-0.269,0-0.466-0.033-0.592-0.104
		c-0.239-0.144-0.357-0.35-0.357-0.621c0-0.283,0.097-0.48,0.289-0.591l0.164-0.09c0.03-0.021,0.045-0.035,0.045-0.045
		c0-0.041-0.015-0.07-0.045-0.085l-0.18-0.104c-0.181-0.112-0.273-0.305-0.273-0.575c0-0.278,0.106-0.479,0.321-0.604
		c0.118-0.068,0.177-0.105,0.177-0.122c-0.005-0.025-0.015-0.047-0.03-0.061l-0.226-0.143c-0.161-0.097-0.242-0.276-0.242-0.539
		c0-0.271,0.093-0.463,0.273-0.576l0.18-0.104c0.023-0.014,0.04-0.039,0.045-0.068c0-0.021-0.077-0.08-0.232-0.181
		c-0.177-0.117-0.266-0.309-0.266-0.577c0-0.302,0.139-0.518,0.416-0.65c0.056-0.036,0.082-0.06,0.082-0.077
		c-0.005-0.029-0.021-0.051-0.044-0.058l-0.145-0.084c-0.207-0.11-0.31-0.31-0.31-0.597c0-0.279,0.098-0.474,0.294-0.59
		c0.127-0.075,0.189-0.129,0.189-0.16c0-0.03-0.011-0.044-0.029-0.044l-0.16-0.106c-0.196-0.141-0.294-0.333-0.294-0.575
		c0-0.243,0.093-0.438,0.28-0.592c0.06-0.032,0.09-0.069,0.09-0.104c0-0.051-0.102-0.077-0.31-0.077h-2.246
		c-0.221,0-0.408-0.067-0.559-0.205c-0.15-0.138-0.227-0.313-0.227-0.524c0-0.213,0.078-0.391,0.23-0.528
		c0.155-0.138,0.353-0.208,0.593-0.208h6.076c0.213,0,0.375,0.031,0.485,0.091C209.087,35.066,209.214,35.275,209.214,35.552z"/>
	<path class="st0" d="M212.328,37.025c0,0.302-0.141,0.524-0.423,0.665c-0.044,0.03-0.071,0.056-0.076,0.074
		c0,0.035,0.051,0.076,0.148,0.121c0.234,0.121,0.351,0.326,0.351,0.618c0,0.312-0.132,0.534-0.389,0.666
		c-0.074,0.031-0.11,0.061-0.11,0.097c0,0.03,0.036,0.061,0.11,0.092c0.257,0.109,0.389,0.325,0.389,0.647
		c0,0.287-0.101,0.485-0.303,0.589l-0.164,0.106c-0.021,0.005-0.032,0.02-0.032,0.044c0,0.026,0.076,0.084,0.227,0.175
		c0.181,0.104,0.272,0.291,0.272,0.559c0,0.25-0.083,0.435-0.242,0.55l-0.257,0.188v0.016c0,0.035,0.025,0.065,0.078,0.091
		c0.28,0.125,0.421,0.337,0.421,0.633c0,0.509-0.286,0.763-0.861,0.763c-0.312,0-0.527-0.039-0.639-0.112
		c-0.251-0.13-0.375-0.343-0.375-0.635c0-0.276,0.1-0.474,0.296-0.589c0.12-0.071,0.183-0.121,0.183-0.15
		c0-0.03-0.058-0.076-0.169-0.143c-0.204-0.112-0.31-0.311-0.31-0.597c0-0.297,0.12-0.509,0.355-0.635
		c0.081-0.034,0.123-0.072,0.123-0.113c0-0.029-0.067-0.084-0.196-0.164c-0.189-0.112-0.282-0.308-0.282-0.589
		c0-0.292,0.124-0.503,0.37-0.633c0.071-0.042,0.108-0.072,0.108-0.092v-0.031l-0.196-0.143c-0.189-0.125-0.282-0.316-0.282-0.574
		c0-0.267,0.1-0.46,0.296-0.581l0.166-0.112c0.021-0.021,0.028-0.035,0.028-0.046c0-0.02-0.009-0.039-0.03-0.06l-0.217-0.145
		c-0.162-0.095-0.243-0.277-0.243-0.55c0-0.292,0.134-0.508,0.398-0.649c0.062-0.035,0.092-0.067,0.092-0.097
		c0-0.015-0.004-0.032-0.014-0.046l-0.124-0.062c-0.234-0.11-0.353-0.322-0.353-0.631c0-0.494,0.312-0.741,0.938-0.741
		c0.258,0,0.446,0.034,0.564,0.106c0.248,0.155,0.372,0.371,0.372,0.647c0,0.298-0.141,0.519-0.423,0.666
		c-0.044,0.015-0.071,0.035-0.076,0.061c0,0.034,0.025,0.062,0.076,0.083C212.188,36.498,212.328,36.72,212.328,37.025z
		 M213.779,44.481c0,0.487-0.311,0.734-0.929,0.734c-0.61,0-0.915-0.256-0.915-0.765c0-0.271,0.115-0.474,0.347-0.61
		c0.131-0.081,0.336-0.123,0.613-0.123C213.484,43.718,213.779,43.974,213.779,44.481z M215.274,42.971
		c0,0.231-0.092,0.424-0.277,0.574c-0.115,0.114-0.372,0.173-0.768,0.173c-0.536,0-0.806-0.249-0.806-0.747
		c0-0.277,0.094-0.468,0.278-0.577l0.169-0.088c0.034-0.016,0.053-0.042,0.053-0.076c0-0.025-0.044-0.056-0.134-0.09
		c-0.243-0.107-0.366-0.319-0.366-0.637c0-0.307,0.13-0.524,0.388-0.648c0.102-0.066,0.298-0.1,0.591-0.1
		c0.583,0,0.872,0.254,0.872,0.764c0,0.287-0.115,0.489-0.348,0.604c-0.085,0.036-0.128,0.069-0.128,0.106
		c0,0.051,0.043,0.095,0.128,0.136C215.159,42.49,215.274,42.693,215.274,42.971z M216.75,44.488
		c-0.021,0.483-0.345,0.728-0.976,0.728c-0.573,0-0.86-0.26-0.86-0.773c0-0.472,0.296-0.71,0.892-0.71
		C216.459,43.732,216.774,43.986,216.75,44.488z M218.27,38.511c0,0.307-0.128,0.529-0.387,0.664
		c-0.069,0.032-0.105,0.063-0.105,0.098c0,0.026,0.041,0.062,0.126,0.107c0.243,0.13,0.366,0.342,0.366,0.633
		c0,0.273-0.09,0.463-0.273,0.575l-0.171,0.106c-0.023,0.02-0.032,0.035-0.032,0.044c0,0.042,0.057,0.1,0.172,0.175
		c0.202,0.105,0.305,0.304,0.305,0.589c0,0.293-0.133,0.509-0.398,0.652c-0.062,0.028-0.094,0.058-0.094,0.088
		c0,0.037,0.041,0.071,0.126,0.106c0.243,0.116,0.366,0.321,0.366,0.621c0,0.508-0.319,0.762-0.952,0.762
		c-0.265,0-0.454-0.037-0.564-0.111c-0.239-0.152-0.357-0.368-0.357-0.65c0-0.268,0.131-0.476,0.392-0.621
		c0.07-0.051,0.106-0.086,0.106-0.106c-0.036-0.051-0.118-0.113-0.241-0.188c-0.173-0.1-0.257-0.295-0.257-0.583
		c0-0.255,0.102-0.448,0.302-0.574c0.131-0.08,0.196-0.128,0.196-0.144c-0.004-0.005-0.01-0.011-0.012-0.019
		c-0.003-0.008-0.005-0.017-0.005-0.028l-0.242-0.15c-0.159-0.104-0.239-0.282-0.239-0.529c0-0.298,0.102-0.499,0.302-0.606
		c0.131-0.078,0.196-0.133,0.196-0.166c0-0.026-0.061-0.067-0.179-0.127c-0.213-0.132-0.319-0.333-0.319-0.605
		c0-0.286,0.13-0.503,0.389-0.649c0.073-0.04,0.109-0.077,0.109-0.107c0-0.023-0.042-0.06-0.128-0.104
		c-0.227-0.132-0.341-0.338-0.341-0.62c0-0.293,0.104-0.5,0.31-0.62c0.117-0.066,0.173-0.114,0.173-0.145
		c0-0.03-0.039-0.06-0.12-0.09c-0.241-0.115-0.362-0.317-0.362-0.606c0-0.524,0.29-0.785,0.868-0.785
		c0.312,0,0.521,0.034,0.621,0.106c0.236,0.135,0.355,0.348,0.355,0.635c0,0.308-0.109,0.513-0.324,0.618
		c-0.104,0.051-0.152,0.092-0.152,0.123c0,0.036,0.04,0.074,0.121,0.112c0.236,0.112,0.355,0.322,0.355,0.635
		c0,0.294-0.109,0.5-0.324,0.621c-0.112,0.06-0.168,0.101-0.168,0.12c0,0.036,0.046,0.077,0.137,0.123
		C218.15,38.017,218.27,38.223,218.27,38.511z"/>
	<path class="st0" d="M221.858,42.938c0,0.218-0.075,0.393-0.227,0.525c-0.15,0.134-0.349,0.201-0.59,0.201h-0.144
		c-0.585,0-0.876-0.24-0.876-0.727c0-0.261,0.091-0.452,0.273-0.573l0.173-0.106c0.021-0.02,0.029-0.036,0.029-0.046
		c0-0.039-0.016-0.058-0.046-0.058l-0.148-0.1c-0.188-0.122-0.281-0.314-0.281-0.583c0-0.272,0.09-0.469,0.266-0.591l0.18-0.097
		c0.02-0.015,0.03-0.035,0.03-0.06c-0.006-0.026-0.016-0.04-0.03-0.044l-0.242-0.183c-0.137-0.112-0.203-0.278-0.203-0.5
		c0-0.296,0.094-0.494,0.281-0.589c0.13-0.075,0.194-0.127,0.194-0.151c0-0.03-0.011-0.049-0.03-0.058l-0.18-0.13
		c-0.176-0.126-0.266-0.312-0.266-0.559c0-0.283,0.106-0.481,0.319-0.597c0.104-0.061,0.156-0.11,0.156-0.146
		c0-0.014-0.006-0.028-0.016-0.044l-0.211-0.136c-0.164-0.115-0.249-0.296-0.249-0.543c0-0.221,0.078-0.408,0.236-0.562
		c0.158-0.15,0.349-0.216,0.57-0.203l0.192,0.021c0.56,0.046,0.837,0.289,0.837,0.726c0,0.278-0.07,0.464-0.211,0.56l-0.22,0.136
		c-0.019,0.021-0.029,0.035-0.029,0.044c0.005,0.026,0.014,0.046,0.029,0.062l0.181,0.129c0.169,0.11,0.25,0.294,0.25,0.552
		c0,0.261-0.081,0.448-0.25,0.559l-0.181,0.13c-0.019,0.02-0.029,0.032-0.029,0.044c0,0.033,0.064,0.09,0.196,0.165
		c0.176,0.106,0.264,0.298,0.264,0.576c0,0.273-0.088,0.463-0.264,0.573l-0.167,0.107c-0.019,0.02-0.029,0.039-0.029,0.06
		c0.005,0.025,0.014,0.045,0.029,0.06l0.153,0.097c0.186,0.113,0.277,0.31,0.277,0.591c0,0.314-0.127,0.53-0.387,0.65
		c-0.051,0.032-0.073,0.055-0.073,0.076c0,0.03,0.035,0.064,0.105,0.106C221.74,42.439,221.858,42.653,221.858,42.938z
		 M226.287,44.412c0,0.218-0.073,0.396-0.223,0.534c-0.148,0.139-0.343,0.206-0.585,0.206h-3.266c-0.185,0-0.351-0.069-0.494-0.218
		c-0.144-0.146-0.216-0.313-0.216-0.507c0-0.201,0.074-0.371,0.22-0.506c0.146-0.136,0.331-0.204,0.558-0.204h3.22
		C226.027,43.718,226.287,43.949,226.287,44.412z M226.305,35.554c0,0.486-0.287,0.727-0.854,0.727h-2.707
		c-0.463,0-0.753-0.03-0.869-0.09c-0.236-0.126-0.355-0.337-0.355-0.636c0-0.19,0.068-0.36,0.201-0.506
		c0.132-0.146,0.287-0.219,0.464-0.219h3.35c0.221,0,0.404,0.07,0.55,0.208C226.229,35.177,226.305,35.35,226.305,35.554z
		 M227.785,39.999c0,0.273-0.09,0.465-0.269,0.575l-0.206,0.121c-0.014,0.004-0.019,0.02-0.019,0.044
		c0.007,0.026,0.019,0.049,0.033,0.069l0.182,0.106c0.186,0.11,0.278,0.291,0.278,0.545c0,0.286-0.098,0.485-0.292,0.597
		c-0.132,0.074-0.201,0.128-0.201,0.157c0,0.035,0.062,0.086,0.183,0.152c0.209,0.116,0.311,0.306,0.311,0.573
		c0,0.495-0.292,0.74-0.879,0.74c-0.649,0-0.973-0.24-0.973-0.726c0-0.286,0.103-0.487,0.309-0.604
		c0.103-0.056,0.151-0.102,0.151-0.137c-0.005-0.024-0.015-0.046-0.029-0.058l-0.182-0.131c-0.168-0.11-0.249-0.295-0.249-0.552
		c0-0.307,0.112-0.514,0.339-0.618l0.032-0.015c0.069-0.036,0.104-0.063,0.104-0.084c0-0.03-0.064-0.084-0.196-0.166
		c-0.186-0.112-0.279-0.307-0.279-0.59c0-0.281,0.103-0.483,0.309-0.603c0.113-0.067,0.167-0.113,0.167-0.138
		c-0.005-0.03-0.016-0.044-0.03-0.044l-0.15-0.114c-0.196-0.095-0.295-0.292-0.295-0.589c0-0.253,0.094-0.436,0.279-0.552
		l0.166-0.114c0.021-0.02,0.03-0.041,0.03-0.06c0-0.031-0.071-0.086-0.213-0.167c-0.176-0.105-0.263-0.287-0.263-0.544
		c0-0.504,0.29-0.756,0.873-0.756c0.301,0,0.504,0.031,0.599,0.092c0.252,0.155,0.38,0.368,0.38,0.635
		c0,0.287-0.104,0.488-0.314,0.604c-0.117,0.075-0.179,0.12-0.179,0.137c0,0.019,0.012,0.04,0.032,0.06l0.206,0.129
		c0.17,0.121,0.255,0.305,0.255,0.551c0,0.302-0.116,0.511-0.348,0.62c-0.097,0.05-0.146,0.087-0.146,0.113
		c0,0.037,0.028,0.066,0.079,0.092C227.646,39.486,227.785,39.703,227.785,39.999z"/>
	<path class="st0" d="M235.918,35.552c0,0.21-0.072,0.387-0.22,0.531c-0.146,0.141-0.328,0.211-0.545,0.211h-3.786
		c-0.155,0-0.233,0.022-0.233,0.062c0,0.042,0.023,0.082,0.072,0.12c0.183,0.173,0.274,0.354,0.274,0.546
		c0,0.295-0.103,0.5-0.306,0.621c-0.115,0.066-0.171,0.111-0.171,0.137c0.01,0.039,0.023,0.06,0.037,0.06l0.187,0.143
		c0.169,0.123,0.253,0.303,0.253,0.539c0,0.256-0.084,0.443-0.253,0.56l-0.224,0.158c0,0.006-0.002,0.009-0.003,0.012
		c-0.004,0.002-0.007,0.008-0.011,0.019c0,0.026,0.068,0.082,0.206,0.167c0.189,0.12,0.284,0.312,0.284,0.574
		c0,0.287-0.1,0.489-0.299,0.606c-0.118,0.066-0.178,0.11-0.178,0.135c0,0.037,0.049,0.08,0.146,0.13
		c0.221,0.11,0.331,0.318,0.331,0.621c0,0.268-0.142,0.49-0.422,0.673c-0.038,0.019-0.055,0.042-0.055,0.068
		c0,0.024,0.074,0.089,0.224,0.188c0.169,0.11,0.253,0.295,0.253,0.553c0,0.291-0.125,0.504-0.377,0.636
		c-0.081,0.04-0.125,0.071-0.13,0.097c0,0.037,0.019,0.062,0.054,0.077l0.154,0.105c0.199,0.137,0.299,0.324,0.299,0.56
		c0,0.484-0.287,0.726-0.857,0.726c-0.277,0-0.463-0.018-0.554-0.06c-0.294-0.126-0.439-0.354-0.439-0.682
		c0-0.326,0.122-0.537,0.369-0.633c0.066-0.026,0.099-0.055,0.099-0.092c0-0.036-0.067-0.092-0.204-0.173
		c-0.177-0.106-0.264-0.296-0.264-0.574c0-0.263,0.087-0.454,0.264-0.577c0.137-0.069,0.204-0.119,0.204-0.15
		c0-0.03-0.007-0.051-0.016-0.06l-0.22-0.144c-0.156-0.096-0.232-0.275-0.232-0.537c0-0.275,0.096-0.479,0.294-0.604l0.158-0.075
		c0.02-0.025,0.03-0.047,0.03-0.068c0-0.025-0.047-0.06-0.143-0.106c-0.227-0.14-0.34-0.353-0.34-0.635
		c0-0.276,0.106-0.477,0.323-0.604c0.107-0.068,0.159-0.115,0.159-0.136c0-0.02-0.027-0.045-0.082-0.073
		c-0.268-0.127-0.4-0.352-0.4-0.675c0-0.297,0.113-0.5,0.34-0.611c0.096-0.052,0.143-0.093,0.143-0.128
		c0-0.026-0.052-0.066-0.159-0.121c-0.217-0.115-0.323-0.318-0.323-0.606c0-0.281,0.091-0.477,0.278-0.589
		c0.127-0.077,0.189-0.127,0.189-0.152c0-0.034-0.012-0.063-0.031-0.083l-0.188-0.122c-0.166-0.11-0.248-0.292-0.248-0.543
		c0-0.33,0.133-0.549,0.4-0.666c0.118-0.05,0.419-0.077,0.897-0.077h4.257c0.199,0,0.372,0.072,0.517,0.215
		C235.847,35.186,235.918,35.356,235.918,35.552z M235.918,39.999c0,0.504-0.286,0.756-0.856,0.756h-0.929
		c-0.041,0-0.059,0.022-0.059,0.068c0,0.031,0.033,0.069,0.104,0.122c0.167,0.109,0.251,0.292,0.251,0.542
		c0,0.504-0.287,0.756-0.856,0.756c-0.296,0-0.509-0.035-0.634-0.104c-0.236-0.144-0.356-0.353-0.356-0.637
		c0-0.194,0.064-0.357,0.19-0.483l0.166-0.138c0.004-0.008,0.009-0.017,0.01-0.025c0.005-0.006,0.009-0.013,0.014-0.018
		c0-0.058-0.023-0.084-0.07-0.084h-0.339c-0.176,0-0.336-0.074-0.481-0.223c-0.143-0.148-0.213-0.316-0.213-0.503
		c0-0.207,0.067-0.38,0.206-0.519c0.139-0.138,0.312-0.207,0.518-0.207h2.479c0.269,0,0.466,0.051,0.591,0.15
		C235.828,39.6,235.918,39.782,235.918,39.999z M235.918,42.971c0,0.292-0.125,0.508-0.37,0.65
		c-0.112,0.062-0.293,0.097-0.546,0.097c-0.245,0-0.423-0.027-0.527-0.083c-0.268-0.132-0.4-0.342-0.4-0.635
		c0-0.292,0.128-0.51,0.383-0.65c0.118-0.06,0.295-0.091,0.531-0.091c0.267,0,0.458,0.031,0.573,0.091
		C235.8,42.481,235.918,42.688,235.918,42.971z M237.397,38.525c0,0.227-0.078,0.411-0.24,0.552c-0.16,0.142-0.369,0.213-0.62,0.213
		c-0.651,0-0.976-0.254-0.976-0.765c0-0.252,0.081-0.43,0.242-0.537l0.174-0.112c0.03-0.026,0.045-0.051,0.045-0.077v-0.031
		l-0.03-0.028l-0.174-0.108c-0.171-0.109-0.257-0.286-0.257-0.528c0-0.514,0.304-0.771,0.906-0.771c0.621,0,0.93,0.242,0.93,0.725
		c0,0.251-0.092,0.445-0.279,0.574l-0.15,0.108c-0.025,0.014-0.04,0.034-0.046,0.059c0,0.037,0.046,0.08,0.137,0.13
		C237.285,38.039,237.397,38.239,237.397,38.525z M237.384,44.438c0,0.497-0.292,0.746-0.878,0.746
		c-0.629,0-0.944-0.239-0.944-0.718c0-0.488,0.284-0.733,0.849-0.733C237.059,43.732,237.384,43.968,237.384,44.438z"/>
	<path class="st0" d="M242.771,39.999c0,0.504-0.279,0.756-0.838,0.756h-1.331c-0.029,0-0.046,0.018-0.046,0.053
		c0,0.031,0.035,0.074,0.104,0.137c0.162,0.128,0.245,0.317,0.245,0.558c0,0.284-0.097,0.477-0.292,0.581l-0.162,0.1
		c-0.009,0.009-0.017,0.024-0.022,0.046c0,0.029,0.009,0.051,0.022,0.061l0.193,0.143c0.173,0.121,0.261,0.305,0.261,0.552
		c0,0.269-0.137,0.489-0.409,0.665c-0.04,0.016-0.062,0.037-0.067,0.068c0,0.03,0.058,0.081,0.171,0.15
		c0.204,0.127,0.306,0.322,0.306,0.59c0,0.303-0.134,0.525-0.398,0.666c-0.102,0.051-0.291,0.075-0.572,0.075
		c-0.588,0-0.884-0.246-0.884-0.739c0-0.286,0.145-0.505,0.425-0.649c0.042-0.032,0.062-0.055,0.062-0.076
		c0-0.034-0.039-0.072-0.116-0.113c-0.245-0.131-0.371-0.342-0.371-0.632c0-0.291,0.115-0.501,0.342-0.619
		c0.095-0.046,0.146-0.086,0.146-0.122c-0.005-0.025-0.017-0.044-0.032-0.06l-0.203-0.129c-0.167-0.121-0.252-0.31-0.252-0.563
		c0-0.3,0.145-0.521,0.425-0.666c0.025-0.021,0.051-0.043,0.076-0.068c0-0.026-0.014-0.044-0.046-0.062l-0.127-0.075
		c-0.218-0.11-0.328-0.317-0.328-0.62c0-0.317,0.131-0.532,0.387-0.646c0.066-0.025,0.101-0.058,0.101-0.092
		c0-0.024-0.055-0.066-0.159-0.129c-0.218-0.114-0.328-0.322-0.328-0.618c0-0.302,0.11-0.508,0.328-0.62
		c0.104-0.051,0.159-0.09,0.159-0.12c0-0.011-0.005-0.026-0.017-0.046l-0.188-0.106c-0.188-0.11-0.282-0.305-0.282-0.587
		c0-0.276,0.095-0.474,0.282-0.589l0.173-0.107c0.021-0.009,0.032-0.026,0.032-0.052c0-0.02-0.012-0.04-0.032-0.06l-0.189-0.105
		c-0.176-0.102-0.266-0.292-0.266-0.574c0-0.503,0.31-0.755,0.929-0.755c0.616,0,0.926,0.247,0.926,0.74
		c0,0.29-0.123,0.506-0.365,0.646c-0.079,0.046-0.123,0.076-0.127,0.092c0,0.04,0.013,0.062,0.036,0.066l0.18,0.121
		c0.184,0.126,0.276,0.317,0.276,0.572c0,0.322-0.128,0.539-0.379,0.648c-0.065,0.024-0.098,0.051-0.098,0.075
		c0,0.031,0.009,0.051,0.022,0.062l0.184,0.112c0.182,0.137,0.271,0.334,0.271,0.595c0,0.222-0.057,0.382-0.176,0.481
		c-0.116,0.103-0.174,0.164-0.174,0.19c0,0.05,0.021,0.073,0.062,0.073h1.419c0.197,0,0.368,0.072,0.515,0.213
		C242.7,39.625,242.771,39.798,242.771,39.999z M243.885,38.48c0,0.518-0.311,0.777-0.932,0.777c-0.619,0-0.929-0.249-0.929-0.747
		c0-0.494,0.31-0.742,0.929-0.742C243.574,37.769,243.885,38.006,243.885,38.48z M243.885,41.473c0,0.514-0.306,0.771-0.916,0.771
		c-0.629,0-0.944-0.247-0.944-0.74c0-0.508,0.306-0.764,0.914-0.764C243.568,40.739,243.885,40.983,243.885,41.473z M245.372,37.014
		c0,0.504-0.293,0.754-0.884,0.754c-0.269,0-0.47-0.034-0.604-0.104c-0.248-0.137-0.371-0.347-0.371-0.637
		c0-0.499,0.312-0.747,0.944-0.747C245.066,36.281,245.372,36.524,245.372,37.014z M245.372,42.971c0,0.214-0.084,0.408-0.248,0.574
		c-0.113,0.114-0.381,0.173-0.803,0.173c-0.231,0-0.421-0.071-0.57-0.209c-0.146-0.138-0.223-0.311-0.223-0.524
		c0-0.494,0.324-0.741,0.976-0.741c0.257,0,0.465,0.067,0.626,0.201S245.372,42.753,245.372,42.971z M246.854,35.526
		c0,0.224-0.088,0.417-0.256,0.574c-0.128,0.109-0.376,0.167-0.75,0.167c-0.554,0-0.831-0.238-0.831-0.713
		c0-0.327,0.133-0.552,0.401-0.68c0.108-0.051,0.287-0.075,0.529-0.075C246.553,34.799,246.854,35.04,246.854,35.526z
		 M246.854,44.458c0,0.309-0.118,0.525-0.354,0.648c-0.116,0.063-0.3,0.093-0.552,0.093c-0.207,0-0.368-0.02-0.483-0.061
		c-0.298-0.116-0.447-0.337-0.447-0.665c0-0.191,0.068-0.357,0.202-0.498c0.134-0.142,0.291-0.216,0.479-0.228
		C246.469,43.704,246.854,43.94,246.854,44.458z"/>
</g>
<path class="st1" d="M42.172,47.71c0.28-1.063,0.229-1.544,0.229-1.544c-0.097-0.818-0.649-0.744-0.649-0.744
	c-0.382,0.057-0.437,0.575-0.437,0.575c-0.29,1.2,0.5,1.693,0.5,1.693c0.075,0.047,0.137,0.079,0.202,0.111
	C42.036,47.81,42.137,47.843,42.172,47.71z"/>
<path class="st1" d="M41.751,45.422c-0.382,0.057-0.437,0.575-0.437,0.575c-0.29,1.2,0.5,1.693,0.5,1.693
	c0.075,0.047,0.137,0.079,0.202,0.111c0.02,0.008,0.12,0.041,0.155-0.092c0.28-1.063,0.229-1.544,0.229-1.544
	C42.304,45.348,41.751,45.422,41.751,45.422z"/>
<path class="st1" d="M41.751,45.422c-0.319,0.054-0.437,0.575-0.437,0.575c-0.29,1.2,0.5,1.693,0.5,1.693
	c0.075,0.047,0.137,0.079,0.202,0.111c0.02,0.008,0.12,0.041,0.155-0.092c0.28-1.063,0.229-1.544,0.229-1.544
	C42.304,45.348,41.751,45.422,41.751,45.422z"/>
<path class="st1" d="M41.751,45.422c-0.319,0.054-0.437,0.575-0.437,0.575c-0.29,1.2,0.5,1.693,0.5,1.693
	c0.075,0.047,0.137,0.079,0.202,0.111c0.02,0.008,0.12,0.041,0.155-0.092c0.28-1.063,0.229-1.544,0.229-1.544
	C42.304,45.348,41.751,45.422,41.751,45.422z"/>
<path class="st1" d="M41.751,45.422c-0.319,0.054-0.437,0.575-0.437,0.575c-0.29,1.2,0.5,1.693,0.5,1.693
	c0.075,0.047,0.137,0.079,0.202,0.111c0.02,0.008,0.12,0.041,0.155-0.092c0.28-1.063,0.229-1.544,0.229-1.544
	C42.304,45.348,41.751,45.422,41.751,45.422z"/>
<path class="st1" d="M53.18,44.54c0.024-0.241-0.129-0.287-0.267-0.231c-0.133,0.053-0.286,0.191-0.286,0.191
	c-1.54,1.405-2.604,4.61-2.682,4.852c0,0-0.019,0.047,0.014,0.065c0.014,0.008,0.034,0.008,0.073-0.027c0,0-0.001,0.003-0.001,0.004
	C52.987,46.839,53.18,44.54,53.18,44.54z"/>
<path class="st1" d="M41.751,45.422c-0.319,0.054-0.437,0.575-0.437,0.575c-0.29,1.2,0.5,1.693,0.5,1.693
	c0.075,0.047,0.137,0.079,0.202,0.111c0.02,0.008,0.12,0.041,0.155-0.092c0.28-1.063,0.229-1.544,0.229-1.544
	C42.304,45.348,41.751,45.422,41.751,45.422z"/>
<path class="st1" d="M53.18,44.54c0.024-0.241-0.129-0.287-0.267-0.231c-0.133,0.053-0.286,0.191-0.286,0.191
	c-1.54,1.405-2.604,4.61-2.682,4.852c0,0-0.019,0.047,0.014,0.065c0.014,0.008,0.034,0.008,0.073-0.027c0,0-0.001,0.003-0.001,0.004
	C52.987,46.839,53.18,44.54,53.18,44.54z"/>
<path class="st1" d="M41.751,45.422c-0.319,0.054-0.437,0.575-0.437,0.575c-0.29,1.2,0.5,1.693,0.5,1.693
	c0.075,0.047,0.137,0.079,0.202,0.111c0.02,0.008,0.12,0.041,0.155-0.092c0.28-1.063,0.229-1.544,0.229-1.544
	C42.304,45.348,41.751,45.422,41.751,45.422z"/>
<path class="st1" d="M41.751,45.422c-0.319,0.054-0.437,0.575-0.437,0.575c-0.29,1.2,0.5,1.693,0.5,1.693
	c0.075,0.047,0.137,0.079,0.202,0.111c0.02,0.008,0.12,0.041,0.155-0.092c0.28-1.063,0.229-1.544,0.229-1.544
	C42.304,45.348,41.751,45.422,41.751,45.422z"/>
<path class="st1" d="M53.18,44.54c0.024-0.241-0.129-0.287-0.267-0.231c-0.133,0.053-0.286,0.191-0.286,0.191
	c-1.54,1.405-2.604,4.61-2.682,4.852c0,0-0.019,0.047,0.014,0.065c0.014,0.008,0.034,0.008,0.073-0.027c0,0-0.001,0.003-0.001,0.004
	C52.987,46.839,53.18,44.54,53.18,44.54z"/>
<path class="st1" d="M53.18,44.54c0.024-0.241-0.129-0.287-0.267-0.231c-0.133,0.053-0.286,0.191-0.286,0.191
	c-1.54,1.405-2.604,4.61-2.682,4.852c0,0-0.019,0.047,0.014,0.065c0.014,0.008,0.034,0.008,0.073-0.027c0,0-0.001,0.003-0.001,0.004
	C52.987,46.839,53.18,44.54,53.18,44.54z"/>
<path class="st1" d="M41.751,45.422c-0.319,0.054-0.437,0.575-0.437,0.575c-0.29,1.2,0.5,1.693,0.5,1.693
	c0.075,0.047,0.137,0.079,0.202,0.111c0.02,0.008,0.12,0.041,0.155-0.092c0.28-1.063,0.229-1.544,0.229-1.544
	C42.304,45.348,41.751,45.422,41.751,45.422z"/>
<path class="st1" d="M53.18,44.54c0.024-0.241-0.129-0.287-0.267-0.231c-0.133,0.053-0.286,0.191-0.286,0.191
	c-1.54,1.405-2.604,4.61-2.682,4.852c0,0-0.019,0.047,0.014,0.065c0.014,0.008,0.034,0.008,0.073-0.027c0,0-0.001,0.003-0.001,0.004
	C52.987,46.839,53.18,44.54,53.18,44.54z"/>
<path class="st1" d="M41.751,45.422c-0.319,0.054-0.437,0.575-0.437,0.575c-0.29,1.2,0.5,1.693,0.5,1.693
	c0.075,0.047,0.137,0.079,0.202,0.111c0.02,0.008,0.12,0.041,0.155-0.092c0.28-1.063,0.229-1.544,0.229-1.544
	C42.304,45.348,41.751,45.422,41.751,45.422z"/>
<path class="st1" d="M53.18,44.54c0.024-0.241-0.129-0.287-0.267-0.231c-0.133,0.053-0.286,0.191-0.286,0.191
	c-1.54,1.405-2.604,4.61-2.682,4.852c0,0-0.019,0.047,0.014,0.065c0.014,0.008,0.034,0.008,0.073-0.027c0,0-0.001,0.003-0.001,0.004
	C52.987,46.839,53.18,44.54,53.18,44.54z"/>
<path class="st1" d="M41.751,45.422c-0.319,0.054-0.437,0.575-0.437,0.575c-0.29,1.2,0.5,1.693,0.5,1.693
	c0.075,0.047,0.137,0.079,0.202,0.111c0.02,0.008,0.12,0.041,0.155-0.092c0.28-1.063,0.229-1.544,0.229-1.544
	C42.304,45.348,41.751,45.422,41.751,45.422z"/>
<path class="st1" d="M71.55,40.756c0.07-0.194-0.006-0.295-0.025-0.317c-0.209-0.191-0.388-0.271-0.546-0.336
	c-1.581-0.661-3.297,4.773-3.297,4.773c-0.429,1.27,0.412,1.341,0.412,1.341c0.747,0.047,1.849-1.198,2.062-1.527
	c0.214-0.331,0.535-1.352,0.535-1.352C70.938,42.511,71.23,41.641,71.55,40.756L71.55,40.756z"/>
<path class="st1" d="M41.751,45.422c-0.319,0.054-0.437,0.575-0.437,0.575c-0.29,1.2,0.5,1.693,0.5,1.693
	c0.075,0.047,0.137,0.079,0.202,0.111c0.02,0.008,0.12,0.041,0.155-0.092c0.28-1.063,0.229-1.544,0.229-1.544
	C42.304,45.348,41.751,45.422,41.751,45.422z"/>
<path class="st1" d="M53.18,44.54c0.024-0.241-0.129-0.287-0.267-0.231c-0.133,0.053-0.286,0.191-0.286,0.191
	c-1.54,1.405-2.604,4.61-2.682,4.852c0,0-0.019,0.047,0.014,0.065c0.014,0.008,0.034,0.008,0.073-0.027c0,0-0.001,0.003-0.001,0.004
	C52.987,46.839,53.18,44.54,53.18,44.54z"/>
<path class="st1" d="M71.524,40.438c-0.209-0.191-0.388-0.271-0.546-0.336c-1.581-0.661-3.297,4.773-3.297,4.773
	c-0.403,1.381,0.412,1.341,0.412,1.341c0.747,0.047,1.849-1.198,2.062-1.527c0.214-0.331,0.535-1.352,0.535-1.352
	c0.246-0.826,0.539-1.696,0.859-2.581H71.55C71.63,40.546,71.544,40.461,71.524,40.438z"/>
<path class="st1" d="M53.18,44.54c0.024-0.241-0.129-0.287-0.267-0.231c-0.133,0.053-0.286,0.191-0.286,0.191
	c-1.54,1.405-2.604,4.61-2.682,4.852c0,0-0.019,0.047,0.014,0.065c0.014,0.008,0.034,0.008,0.073-0.027c0,0-0.001,0.003-0.001,0.004
	C52.987,46.839,53.18,44.54,53.18,44.54z"/>
<path class="st1" d="M41.751,45.422c-0.319,0.054-0.437,0.575-0.437,0.575c-0.29,1.2,0.5,1.693,0.5,1.693
	c0.075,0.047,0.137,0.079,0.202,0.111c0.02,0.008,0.12,0.041,0.155-0.092c0.28-1.063,0.229-1.544,0.229-1.544
	C42.304,45.348,41.751,45.422,41.751,45.422z"/>
<path class="st1" d="M71.524,40.438c-0.209-0.191-0.388-0.271-0.546-0.336c-1.581-0.661-3.297,4.773-3.297,4.773
	c-0.403,1.381,0.412,1.341,0.412,1.341c0.747,0.047,1.849-1.198,2.062-1.527c0.214-0.331,0.535-1.352,0.535-1.352
	c0.246-0.826,0.539-1.696,0.859-2.581H71.55C71.63,40.546,71.544,40.461,71.524,40.438z"/>
<path class="st1" d="M53.18,44.54c0.024-0.241-0.129-0.287-0.267-0.231c-0.133,0.053-0.286,0.191-0.286,0.191
	c-1.54,1.405-2.604,4.61-2.682,4.852c0,0-0.019,0.047,0.014,0.065c0.014,0.008,0.034,0.008,0.073-0.027c0,0-0.001,0.003-0.001,0.004
	C52.987,46.839,53.18,44.54,53.18,44.54z"/>
<path class="st1" d="M71.524,40.438c-0.209-0.191-0.388-0.271-0.546-0.336c-1.581-0.661-3.297,4.773-3.297,4.773
	c-0.403,1.381,0.412,1.341,0.412,1.341c0.747,0.047,1.849-1.198,2.062-1.527c0.214-0.331,0.535-1.352,0.535-1.352
	c0.246-0.826,0.539-1.696,0.859-2.581H71.55C71.63,40.546,71.544,40.461,71.524,40.438z"/>
<path class="st1" d="M41.751,45.422c-0.319,0.054-0.437,0.575-0.437,0.575c-0.29,1.2,0.5,1.693,0.5,1.693
	c0.075,0.047,0.137,0.079,0.202,0.111c0.02,0.008,0.12,0.041,0.155-0.092c0.28-1.063,0.229-1.544,0.229-1.544
	C42.304,45.348,41.751,45.422,41.751,45.422z"/>
<path class="st1" d="M53.18,44.54c0.024-0.241-0.129-0.287-0.267-0.231c-0.133,0.053-0.286,0.191-0.286,0.191
	c-1.54,1.405-2.604,4.61-2.682,4.852c0,0-0.019,0.047,0.014,0.065c0.014,0.008,0.034,0.008,0.073-0.027c0,0-0.001,0.003-0.001,0.004
	C52.987,46.839,53.18,44.54,53.18,44.54z"/>
<path class="st1" d="M71.524,40.438c-0.209-0.191-0.388-0.271-0.546-0.336c-1.581-0.661-3.297,4.773-3.297,4.773
	c-0.403,1.381,0.412,1.341,0.412,1.341c0.747,0.047,1.849-1.198,2.062-1.527c0.214-0.331,0.535-1.352,0.535-1.352
	c0.246-0.826,0.539-1.696,0.859-2.581H71.55C71.63,40.546,71.544,40.461,71.524,40.438z"/>
<path class="st1" d="M41.751,45.422c-0.319,0.054-0.437,0.575-0.437,0.575c-0.29,1.2,0.5,1.693,0.5,1.693
	c0.075,0.047,0.137,0.079,0.202,0.111c0.02,0.008,0.12,0.041,0.155-0.092c0.28-1.063,0.229-1.544,0.229-1.544
	C42.304,45.348,41.751,45.422,41.751,45.422z"/>
<path class="st1" d="M41.751,45.422c-0.319,0.054-0.437,0.575-0.437,0.575c-0.29,1.2,0.5,1.693,0.5,1.693
	c0.075,0.047,0.137,0.079,0.202,0.111c0.02,0.008,0.12,0.041,0.155-0.092c0.28-1.063,0.229-1.544,0.229-1.544
	C42.304,45.348,41.751,45.422,41.751,45.422z"/>
<path class="st1" d="M53.18,44.54c0.024-0.241-0.129-0.287-0.267-0.231c-0.133,0.053-0.286,0.191-0.286,0.191
	c-1.54,1.405-2.604,4.61-2.682,4.852c0,0-0.019,0.047,0.014,0.065c0.014,0.008,0.034,0.008,0.073-0.027c0,0-0.001,0.003-0.001,0.004
	C52.987,46.839,53.18,44.54,53.18,44.54z"/>
<path class="st1" d="M71.524,40.438c-0.209-0.191-0.388-0.271-0.546-0.336c-1.581-0.661-3.297,4.773-3.297,4.773
	c-0.403,1.381,0.412,1.341,0.412,1.341c0.747,0.047,1.849-1.198,2.062-1.527c0.214-0.331,0.535-1.352,0.535-1.352
	c0.246-0.826,0.539-1.696,0.859-2.581H71.55C71.63,40.546,71.544,40.461,71.524,40.438z"/>
<path class="st1" d="M78.419,38.901c-0.085-0.125-0.157,0.044-0.157,0.044l0,0c-0.711,1.916-1.356,3.074-1.58,3.452l0,0
	c0,0-0.083,0.149-0.03,0.27c0.489,1.074,1.942,0.745,1.942,0.745c1.533-0.446,1.217-1.976,1.217-1.976
	C79.636,40.756,78.92,39.631,78.419,38.901z"/>
<path class="st1" d="M71.524,40.438c-0.209-0.191-0.388-0.271-0.546-0.336c-1.581-0.661-3.297,4.773-3.297,4.773
	c-0.403,1.381,0.412,1.341,0.412,1.341c0.747,0.047,1.849-1.198,2.062-1.527c0.214-0.331,0.535-1.352,0.535-1.352
	c0.246-0.826,0.539-1.696,0.859-2.581H71.55C71.63,40.546,71.544,40.461,71.524,40.438z"/>
<path class="st1" d="M53.18,44.54c0.024-0.241-0.129-0.287-0.267-0.231c-0.133,0.053-0.286,0.191-0.286,0.191
	c-1.54,1.405-2.604,4.61-2.682,4.852c0,0-0.019,0.047,0.014,0.065c0.014,0.008,0.034,0.008,0.073-0.027c0,0-0.001,0.003-0.001,0.004
	C52.987,46.839,53.18,44.54,53.18,44.54z"/>
<path class="st1" d="M41.751,45.422c-0.319,0.054-0.437,0.575-0.437,0.575c-0.29,1.2,0.5,1.693,0.5,1.693
	c0.075,0.047,0.137,0.079,0.202,0.111c0.02,0.008,0.12,0.041,0.155-0.092c0.28-1.063,0.229-1.544,0.229-1.544
	C42.304,45.348,41.751,45.422,41.751,45.422z"/>
<path class="st1" d="M78.419,38.901c-0.085-0.125-0.157,0.044-0.157,0.044l0,0c-0.711,1.916-1.356,3.074-1.58,3.452l0,0
	c0,0-0.083,0.149-0.03,0.27c0.489,1.074,1.942,0.745,1.942,0.745c1.533-0.446,1.217-1.976,1.217-1.976
	C79.636,40.756,78.92,39.631,78.419,38.901z"/>
<path class="st1" d="M53.18,44.54c0.024-0.241-0.129-0.287-0.267-0.231c-0.133,0.053-0.286,0.191-0.286,0.191
	c-1.54,1.405-2.604,4.61-2.682,4.852c0,0-0.019,0.047,0.014,0.065c0.014,0.008,0.034,0.008,0.073-0.027c0,0-0.001,0.003-0.001,0.004
	C52.987,46.839,53.18,44.54,53.18,44.54z"/>
<path class="st1" d="M71.524,40.438c-0.209-0.191-0.388-0.271-0.546-0.336c-1.581-0.661-3.297,4.773-3.297,4.773
	c-0.403,1.381,0.412,1.341,0.412,1.341c0.747,0.047,1.849-1.198,2.062-1.527c0.214-0.331,0.535-1.352,0.535-1.352
	c0.246-0.826,0.539-1.696,0.859-2.581H71.55C71.63,40.546,71.544,40.461,71.524,40.438z"/>
<path class="st1" d="M41.751,45.422c-0.319,0.054-0.437,0.575-0.437,0.575c-0.29,1.2,0.5,1.693,0.5,1.693
	c0.075,0.047,0.137,0.079,0.202,0.111c0.02,0.008,0.12,0.041,0.155-0.092c0.28-1.063,0.229-1.544,0.229-1.544
	C42.304,45.348,41.751,45.422,41.751,45.422z"/>
<path class="st1" d="M78.419,38.901c-0.085-0.125-0.157,0.044-0.157,0.044l0,0c-0.711,1.916-1.356,3.074-1.58,3.452l0,0
	c0,0-0.083,0.149-0.03,0.27c0.489,1.074,1.942,0.745,1.942,0.745c1.533-0.446,1.217-1.976,1.217-1.976
	C79.636,40.756,78.92,39.631,78.419,38.901z"/>
<g>
	<path class="st0" d="M71.524,40.438c-0.209-0.191-0.388-0.271-0.546-0.336c-1.581-0.661-3.297,4.773-3.297,4.773
		c-0.403,1.381,0.412,1.341,0.412,1.341c0.747,0.047,1.849-1.198,2.062-1.527c0.214-0.331,0.535-1.352,0.535-1.352
		c0.246-0.826,0.539-1.696,0.859-2.581H71.55C71.63,40.546,71.544,40.461,71.524,40.438z"/>
	<path class="st0" d="M53.18,44.54c0.024-0.241-0.129-0.287-0.267-0.231c-0.133,0.053-0.286,0.191-0.286,0.191
		c-1.54,1.405-2.604,4.61-2.682,4.852c0,0-0.019,0.047,0.014,0.065c0.014,0.008,0.034,0.008,0.073-0.027
		c0,0-0.001,0.003-0.001,0.004C52.987,46.839,53.18,44.54,53.18,44.54z"/>
	<path class="st0" d="M41.751,45.422c-0.319,0.054-0.437,0.575-0.437,0.575c-0.29,1.2,0.5,1.693,0.5,1.693
		c0.075,0.047,0.137,0.079,0.202,0.111c0.02,0.008,0.12,0.041,0.155-0.092c0.28-1.063,0.229-1.544,0.229-1.544
		C42.304,45.348,41.751,45.422,41.751,45.422z"/>
	<path class="st0" d="M78.419,38.901c-0.085-0.125-0.157,0.044-0.157,0.044l0,0c-0.711,1.916-1.356,3.074-1.58,3.452
		c0,0-0.083,0.149-0.03,0.27c0.489,1.074,1.942,0.745,1.942,0.745c1.533-0.446,1.217-1.976,1.217-1.976
		C79.636,40.756,78.92,39.631,78.419,38.901z"/>
	<path class="st0" d="M85.013,42.217c-0.091,0-0.154,0.009-0.191,0.018v0.428h0.164c0.19,0,0.346-0.064,0.346-0.219
		C85.331,42.307,85.23,42.217,85.013,42.217z"/>
	<path class="st0" d="M85.049,41.535H85.04c-0.646,0-1.145,0.536-1.145,1.189c0,0.664,0.499,1.19,1.163,1.19
		c0.645,0.009,1.135-0.526,1.135-1.181C86.193,42.071,85.703,41.535,85.049,41.535z M85.403,43.497
		c-0.046-0.055-0.072-0.181-0.119-0.363c-0.026-0.155-0.117-0.227-0.308-0.227h-0.163v0.59h-0.347v-1.489
		c0.137-0.019,0.328-0.046,0.573-0.046c0.282,0,0.409,0.046,0.509,0.118c0.09,0.064,0.154,0.173,0.154,0.317
		c0,0.182-0.137,0.301-0.309,0.354v0.019c0.145,0.046,0.217,0.163,0.264,0.363c0.045,0.227,0.081,0.309,0.109,0.363H85.403z"/>
	<path class="st0" d="M101.324,63.922V15.668c0-2.797-2.543-3.688-2.543-3.688L54.677,1.311c-3.354-0.7-6.182,0-6.182,0
		L5.009,12.014l-0.878,0.212c0,0-2.393,0.837-2.536,3.44c-0.029,0.296-0.018,0.484-0.018,0.484L1.561,63.223
		c0,3.687,2.941,4.195,2.941,4.195L48.559,77.77c2.924,0.573,6.118,0,6.118,0l43.66-10.352
		C101.388,66.847,101.324,63.922,101.324,63.922z M66.866,8.153c0.001,0.007,0.002,0.015,0.003,0.023
		C66.868,8.168,66.867,8.162,66.866,8.153L66.866,8.153z M65.223,25.175L65.223,25.175l1.321-8.726c0-0.005,0.057-0.337,0.347-0.337
		h3.431c0.296,0,0.353,0.334,0.353,0.334l1.354,7.956c0.06,0.352-0.289,0.391-0.289,0.391v0c-0.718,0.068-1.426,0.138-2.126,0.21v0
		c-0.279,0.029-0.343-0.261-0.343-0.261l0,0l-0.109-0.731c-0.158-1.014-0.315-2.404-0.457-4.001l0,0
		c-0.023-0.257-0.072-0.26-0.077-0.26c-0.047,0-0.066,0.13-0.072,0.206c-0.145,1.959-0.228,2.694-0.394,4.055l-0.113,0.848
		c-0.042,0.306-0.329,0.348-0.329,0.348v0c-0.75,0.084-1.492,0.169-2.221,0.257v0C65.178,25.501,65.223,25.175,65.223,25.175z
		 M60.388,16.428c0.008-0.072,0.057-0.314,0.331-0.314l-0.001-0.002h2.441l-0.001,0.002c0.277,0,0.324,0.249,0.333,0.318v8.856
		c0,0.434-0.329,0.469-0.329,0.469v0c-0.847,0.111-1.679,0.225-2.495,0.34v0c-0.272,0.039-0.279-0.269-0.279-0.269V16.428z
		 M50.102,16.447c0,0,0.01-0.323,0.343-0.335h3.679c2.511,0,3.536,0.254,4.211,1.104c0.729,0.878,0.919,1.982,0.919,5.437v3.358
		c0,0.289-0.283,0.334-0.283,0.334l0.001,0.001c-0.856,0.129-1.697,0.26-2.52,0.395v0c-0.282,0.045-0.304-0.308-0.304-0.308v-4.828
		c0-2.492-0.377-3.002-2.186-3.002h-0.475c-0.282,0-0.281,0.321-0.281,0.321v8.029c0,0.356-0.322,0.405-0.322,0.405l-0.001,0.001
		c-0.84,0.153-1.659,0.31-2.459,0.468v0c-0.306,0.06-0.322-0.328-0.322-0.328V16.447z M40.734,16.447c0,0,0.002-0.322,0.333-0.335
		h7.645c0,0,0.364,0.007,0.364,0.335v2.368c0,0.326-0.364,0.326-0.364,0.326H44.16c-0.326,0-0.321,0.338-0.321,0.338v4.148
		c0,0-0.001,0.3,0.306,0.3h4.25c0,0,0.384,0.011,0.384,0.368v2.016c0,0.36-0.384,0.362-0.384,0.362h-4.25
		c-0.304,0-0.306,0.288-0.306,0.288v1.96c0,0.346-0.321,0.431-0.321,0.431l0.001,0c-0.853,0.209-1.675,0.42-2.471,0.631v0
		c-0.308,0.082-0.313-0.279-0.313-0.279V16.447z M26.616,16.447c0,0,0.014-0.335,0.335-0.335l0,0h4.158c0,0,0.286,0,0.34,0.335
		l0.944,5.951c0.201,1.211,0.355,2.449,0.528,4.233v0.001c0.005,0.066,0.012,0.134,0.02,0.202c0.01,0.069,0.025,0.101,0.045-0.031
		c0.006-0.056,0.013-0.115,0.019-0.169c0,0,0-0.001,0-0.002c0.21-1.924,0.297-2.669,0.55-4.233l0.945-5.951
		c0.001-0.002,0.057-0.335,0.354-0.335h4.199c0,0,0.332,0.005,0.332,0.335v13.621c0,0.388-0.362,0.473-0.362,0.473h0.001
		c-0.76,0.216-1.491,0.432-2.195,0.646v0c-0.404,0.123-0.413-0.364-0.413-0.364v-5.649c0-0.847,0.036-2.479,0.084-3.878
		c-0.003-0.001-0.008-0.002-0.008-0.002s0.025-0.355-0.064-0.361c0,0-0.114-0.03-0.149,0.335l-0.003-0.005
		c-0.258,1.511-0.442,2.605-0.642,3.712l-1.149,6.565c-0.072,0.418-0.424,0.534-0.424,0.534v0.001
		c-0.656,0.22-1.282,0.439-1.879,0.654l0,0c-0.416,0.148-0.536-0.337-0.537-0.341l-1.328-7.668
		c-0.108-0.736-0.244-1.473-0.378-2.208l-0.217-1.303c-0.007-0.038-0.012-0.074-0.019-0.112c-0.048-0.18-0.121-0.165-0.121-0.165
		c-0.073,0.005-0.07,0.241-0.066,0.328l0.001,0.03v0.003l0.017,0.341c0.027,0.623,0.054,2.095,0.054,3.086v8.441
		c0,0.552-0.443,0.734-0.443,0.734l0.001,0c-0.759,0.31-1.456,0.609-2.086,0.893v0c-0.429,0.191-0.441-0.376-0.441-0.376V16.447z
		 M32.458,67.498c0.006,0.895-0.492,0.892-0.492,0.892c-2.225,0.047-3.543-1.254-3.543-1.254c-0.86-0.743-0.639-2.231-0.639-2.231
		c0.762-5.27,3.543-11.711,3.543-11.711c2.95-7.337,7.713-14.706,9.087-16.768c0.046-0.068,0.09-0.135,0.047-0.197
		c-0.029-0.042-0.083-0.035-0.115-0.025c-12.968,4.996-16.868,9.345-16.868,9.345c-0.649,0.603-1.039,0.188-1.229-0.368
		c-0.139-0.404-0.138-0.897-0.138-0.897c-0.005-2.473,0.849-3.973,1.333-4.885c0.484-0.913,1.61-1.62,1.61-1.62
		c15.627-8.505,46.095-11.586,46.095-11.586c1.193-0.124,1.506,0.089,1.506,0.089c0.487,0.304,0.788,0.685,0.788,0.685
		c0.289,0.439-0.476,0.565-0.476,0.565c-14.205,2.35-25.319,5.843-28.678,7.226c-0.208,0.085-0.36,0.268-0.398,0.322
		c-4.748,7.37-9.188,19.843-9.188,19.843C32.36,61.726,32.458,67.498,32.458,67.498z M81.943,43.456
		c-0.664,1.863-3.282,2.335-3.282,2.335c-2.046,0.375-2.933-0.887-3.148-1.265c-0.05-0.105-0.146,0-0.146,0v-0.001
		c-1.354,1.573-2.131,2.346-2.131,2.346c-0.998,0.923-1.847,0.966-1.847,0.966c-0.649,0.041-0.956-0.485-1.063-0.761h-0.002
		c-0.062-0.192-0.233,0-0.233,0l0,0c-2.138,2.204-3.561,2.176-3.561,2.176c-0.664-0.026-0.968-0.488-1.143-1.085h-0.001
		c-0.055-0.164-0.151-0.064-0.189-0.013c-0.005,0.006-0.01,0.015-0.015,0.021c-0.001,0.002-0.004,0.003-0.004,0.003
		c-0.705,0.998-1.453,1.721-1.453,1.721c-1.063,0.987-2.012,0.761-2.012,0.761c-0.738-0.116-0.974-0.561-1.026-0.642
		c-0.851-1.316,2.023-7.094,2.023-7.094c0.237-0.499,0.134-0.647,0.134-0.647c-0.455-0.227-2.016,1.089-2.016,1.089
		c-1,0.879-1.524,1.702-2.008,2.973c-0.094,0.245-0.127,0.402-0.127,0.402c-0.576,2.478-1.109,4.44-1.109,4.44
		c-0.205,0.751-0.783,1.145-0.783,1.145c-1.432,1.014-2.273,0.847-2.273,0.847c-0.434-0.09-0.08-0.862-0.08-0.862
		c0.524-1.251,0.96-2.544,1.351-3.749c0.165-0.51-0.129-0.016-0.129-0.016v-0.001c-2.055,3.405-4.632,5.813-4.632,5.813
		c-1.063,0.961-2.452,0.513-2.529,0.487c-0.495-0.129-0.836-0.601-0.995-1.056v0.001c-0.048-0.126-0.155,0.01-0.155,0.01
		c-1.241,1.594-2.582,2.806-2.582,2.806c-0.775,0.707-1.56,0.724-1.56,0.724c-0.987,0.019-0.933-1.441-0.933-1.441
		c0.152-2.547,2.212-5.689,2.212-5.689c0.101-0.148-0.021-0.297-0.021-0.297c-0.061-0.079-0.195-0.056-0.195-0.056
		c-0.463,0.102-0.872,0.148-1.225,0.162h0.001c-0.172,0.01-0.25,0.207-0.25,0.207l0,0c-2.486,6.497-4.891,8.312-4.891,8.312
		c-0.744,0.615-1.304,0.54-1.304,0.54c-1.789-0.187-1.595-1.917-1.595-1.917c0.005-0.412,0.447-0.537,0.447-0.537
		c3.539-1.303,5.643-6.062,5.643-6.062c0.075-0.162,0.146-0.319,0.213-0.472c0.122-0.292-0.066-0.396-0.066-0.396l0.001-0.003
		c-2.648-1.553-1.141-4.781-1.141-4.781c0.528-1.098,1.51-1.283,1.51-1.283c0.742-0.205,1.303,0.094,1.303,0.094
		c1.593,0.669,0.727,4.108,0.727,4.108c-0.019,0.087-0.026,0.126-0.034,0.158c-0.008,0.067,0.005,0.125,0.092,0.124
		c1.089-0.099,1.906-0.674,1.906-0.674c0.365-0.241,0.529-0.053,0.666,0.132c0.137,0.184,0.414,1.022,0.476,1.3
		c0.062,0.279-0.129,0.633-0.129,0.633c-1.02,1.673-2.029,3.7-2.029,3.7c-0.089,0.194-0.151,0.362-0.196,0.511
		c-0.039,0.146-0.164,0.714,0.188,0.78c0,0,0.29,0.053,0.764-0.345c0,0,1.121-0.964,1.766-1.696c0,0,0.144-0.141,0.153-0.418v0.001
		c0.043-2.154,1.005-4.408,1.005-4.408c1.897-4.097,4.16-4.645,4.16-4.645c0.979-0.379,1.696,0,1.696,0
		c0.553,0.249,0.566,0.887,0.566,0.887c-0.014,2.074-1.402,4.104-1.402,4.104c-1.186,1.814-2.521,2.892-3.138,3.4
		c0,0-0.1,0.089-0.06,0.198c0.153,0.444,0.32,0.558,0.32,0.558c0.439,0.312,1.357-0.678,1.357-0.678
		c2.647-2.701,4.831-6.892,5.571-8.429c0.186-0.386,0.217-0.537,0.219-0.542c0.08-0.304,0.138-0.871,0.138-0.871
		c0.035-0.562,1.646-1.087,1.646-1.087c0.838-0.223,0.552,1.136,0.552,1.136c-0.077,0.361-0.069,0.294-0.18,0.76l-0.044,0.183
		c0,0-0.063,0.267,0.044,0.098c0.884-1.235,2.077-2.19,2.077-2.19c1.548-1.149,2.516-0.518,2.516-0.518
		c1.157,0.604,0.014,3.22,0.014,3.22c-0.824,2.015-1.161,3.166-1.161,3.166c-0.447,1.418,0.112,1.465,0.112,1.465
		c0.511,0.092,1.436-1.01,1.855-1.559c0.122-0.159,0.142-0.385,0.142-0.385h0.001c0.089-0.891,0.262-1.608,0.262-1.608
		c1.452-5.248,4.655-6.254,4.655-6.254c0.919-0.311,1.702,0.042,2.085,0.375l0,0c0,0,0.125,0.107,0.199-0.078l0,0
		c2.203-5.475,4.995-10.83,4.995-10.83c0.424-0.809,0.997-1.092,0.997-1.092c2.076-1.125,3.165-0.372,3.165-0.372
		c0.462,0.24-0.616,1.478-0.616,1.478c-4.26,4.7-8.554,16.574-8.554,16.574c-0.287,0.835,0.101,0.909,0.101,0.909
		c0.47,0.143,1.595-1.229,1.595-1.229c1.249-1.437,2.777-5.1,3.22-6.342c0.059-0.166,0.003-0.325,0.003-0.325l0.001,0
		c-0.376-1.188-0.06-2.085-0.06-2.085c0.632-1.909,2.157-1.597,2.157-1.597c1.449,0.267,0.543,3.376,0.543,3.376
		c-0.12,0.395-0.031,0.627-0.031,0.627c0.456,1.169,1.728,3.839,1.728,3.839C82.265,42.441,81.943,43.456,81.943,43.456z
		 M85.049,44.225c-0.854,0-1.535-0.663-1.535-1.5c0-0.834,0.682-1.489,1.535-1.489h0.01c0.844,0,1.517,0.655,1.517,1.489
		C86.575,43.562,85.902,44.225,85.049,44.225z"/>
</g>
</svg>
