<?xml version="1.0" encoding="utf-8"?>
<!-- Generator: Adobe Illustrator 16.0.0, SVG Export Plug-In . SVG Version: 6.00 Build 0)  -->
<!DOCTYPE svg PUBLIC "-//W3C//DTD SVG 1.1//EN" "http://www.w3.org/Graphics/SVG/1.1/DTD/svg11.dtd" [
	<!ENTITY ns_flows "http://ns.adobe.com/Flows/1.0/">
	<!ENTITY ns_extend "http://ns.adobe.com/Extensibility/1.0/">
	<!ENTITY ns_ai "http://ns.adobe.com/AdobeIllustrator/10.0/">
	<!ENTITY ns_graphs "http://ns.adobe.com/Graphs/1.0/">
]>
<svg version="1.1" id="Layer_1" xmlns:x="&ns_extend;" xmlns:i="&ns_ai;" xmlns:graph="&ns_graphs;"
	 xmlns="http://www.w3.org/2000/svg" xmlns:xlink="http://www.w3.org/1999/xlink" xmlns:a="http://ns.adobe.com/AdobeSVGViewerExtensions/3.0/"
	 x="0px" y="0px" width="300px" height="300px" viewBox="0 0 300 300" style="enable-background:new 0 0 300 300;"
	 xml:space="preserve">
<g>
	<g>
		<path d="M36.456,267.715c0,0.842-0.486,1.261-1.457,1.261c-0.473,0-0.811-0.058-1.014-0.176c-0.414-0.243-0.62-0.605-0.62-1.085
			c0-0.404,0.181-0.73,0.542-0.983c0.167-0.117,0.252-0.193,0.252-0.228c0-0.033-0.102-0.121-0.303-0.265
			c-0.329-0.176-0.492-0.5-0.492-0.972c0-0.538,0.206-0.899,0.618-1.085c0.118-0.041,0.177-0.088,0.177-0.139
			s-0.102-0.134-0.303-0.252c-0.329-0.185-0.492-0.514-0.492-0.984c0-0.505,0.214-0.866,0.643-1.085
			c0.101-0.05,0.151-0.101,0.151-0.151c0-0.041-0.093-0.122-0.277-0.24c-0.346-0.21-0.517-0.546-0.517-1.009
			c0-0.495,0.222-0.865,0.668-1.109c0.101-0.051,0.151-0.093,0.151-0.126c0-0.025-0.042-0.066-0.127-0.127
			c-0.462-0.235-0.693-0.613-0.693-1.135c0-0.496,0.197-0.841,0.592-1.034c0.134-0.067,0.202-0.13,0.202-0.189
			c-0.009-0.042-0.025-0.076-0.051-0.101l-0.328-0.203c-0.277-0.167-0.416-0.479-0.416-0.933c0-0.825,0.485-1.236,1.456-1.236
			c0.481,0,0.823,0.06,1.026,0.178c0.405,0.233,0.608,0.588,0.608,1.059c0,0.496-0.223,0.858-0.667,1.085
			c-0.085,0.051-0.128,0.101-0.128,0.151c0,0.041,0.098,0.122,0.295,0.24c0.333,0.201,0.5,0.546,0.5,1.034
			c0,0.428-0.231,0.79-0.692,1.084c-0.06,0.017-0.094,0.051-0.103,0.102c0,0.084,0.06,0.151,0.179,0.202
			c0.411,0.193,0.616,0.529,0.616,1.009c0,0.513-0.167,0.857-0.5,1.033c-0.197,0.111-0.295,0.199-0.295,0.266
			c0.008,0.042,0.025,0.076,0.051,0.102l0.244,0.126c0.333,0.185,0.5,0.521,0.5,1.009c0,0.413-0.15,0.732-0.449,0.959
			c-0.231,0.127-0.346,0.211-0.346,0.252c0,0.042,0.09,0.13,0.27,0.266c0.35,0.186,0.525,0.512,0.525,0.983
			c0,0.463-0.167,0.796-0.5,0.997c-0.197,0.125-0.295,0.206-0.295,0.239c0,0.05,0.008,0.085,0.025,0.101l0.398,0.266
			C36.332,267.03,36.456,267.311,36.456,267.715z M45.097,270.199c0,0.363-0.119,0.658-0.354,0.89s-0.542,0.348-0.921,0.348h-6.635
			c-0.387,0-0.709-0.116-0.966-0.348c-0.256-0.231-0.385-0.52-0.385-0.864c0-0.37,0.139-0.673,0.417-0.907
			c0.228-0.185,0.677-0.277,1.35-0.277h6.168c0.387,0,0.705,0.109,0.953,0.327C44.972,269.586,45.097,269.864,45.097,270.199z"/>
		<path d="M54.116,270.176c0,0.368-0.128,0.672-0.385,0.907c-0.257,0.235-0.586,0.354-0.99,0.354h-5.349
			c-0.346,0-0.637-0.118-0.877-0.354c-0.24-0.235-0.359-0.521-0.359-0.858c0-0.303,0.107-0.575,0.322-0.818
			c0.214-0.245,0.452-0.366,0.712-0.366h1.678c0.177,0,0.278-0.018,0.303-0.051c0.025-0.034,0.037-0.071,0.037-0.113
			c0-0.06-0.083-0.152-0.25-0.277c-0.246-0.201-0.368-0.488-0.368-0.858c0-0.453,0.229-0.816,0.69-1.085
			c0.086-0.051,0.13-0.092,0.13-0.126c-0.009-0.05-0.026-0.075-0.052-0.075l-0.352-0.24c-0.277-0.15-0.416-0.458-0.416-0.921
			c0-0.487,0.212-0.849,0.639-1.085h0.051c0.069-0.051,0.104-0.097,0.104-0.139c0-0.043-0.117-0.136-0.351-0.278
			c-0.296-0.193-0.443-0.522-0.443-0.985c0-0.472,0.195-0.817,0.586-1.037c0.139-0.058,0.208-0.108,0.208-0.15
			c0-0.034-0.017-0.067-0.05-0.102l-0.316-0.215c-0.286-0.194-0.429-0.506-0.429-0.935c0-0.473,0.16-0.797,0.479-0.973
			c0.21-0.119,0.315-0.207,0.315-0.266c0-0.025-0.008-0.051-0.025-0.076l-0.315-0.178c-0.303-0.185-0.454-0.504-0.454-0.959
			c0-0.312,0.092-0.573,0.277-0.783l0.291-0.305c0.016-0.008,0.025-0.033,0.025-0.074c0-0.067-0.046-0.102-0.139-0.102h-1.703
			c-0.336,0-0.622-0.12-0.858-0.357c-0.235-0.24-0.353-0.524-0.353-0.86c0-0.344,0.12-0.633,0.359-0.872
			c0.24-0.238,0.541-0.357,0.902-0.357h5.197c1,0,1.501,0.401,1.501,1.204c0,0.828-0.475,1.243-1.426,1.243H51.24
			c-0.135,0-0.202,0.034-0.202,0.102c0,0.041,0.103,0.15,0.309,0.328c0.206,0.176,0.31,0.453,0.31,0.832
			c0,0.423-0.24,0.793-0.719,1.112c-0.05,0.051-0.076,0.092-0.076,0.127c0,0.041,0.051,0.083,0.151,0.125
			c0.429,0.185,0.644,0.538,0.644,1.061c0,0.472-0.156,0.8-0.467,0.985l-0.252,0.164c-0.033,0.025-0.05,0.06-0.05,0.102
			s0.109,0.134,0.328,0.277c0.294,0.194,0.441,0.514,0.441,0.959c0,0.463-0.197,0.816-0.593,1.062
			c-0.126,0.067-0.194,0.118-0.202,0.152c0,0.049,0.017,0.096,0.051,0.139l0.252,0.125c0.328,0.16,0.492,0.489,0.492,0.985
			c0,0.48-0.232,0.859-0.694,1.137c-0.05,0.034-0.076,0.067-0.076,0.102c0,0.059,0.05,0.109,0.151,0.15
			c0.412,0.22,0.618,0.573,0.618,1.062c0,0.37-0.099,0.642-0.297,0.814s-0.296,0.271-0.296,0.297c0,0.125,0.096,0.189,0.29,0.189
			h1.551C53.712,269.04,54.116,269.418,54.116,270.176z"/>
		<path d="M65.457,262.884c0,0.362-0.126,0.662-0.378,0.902c-0.252,0.239-0.572,0.359-0.959,0.359h-5.373
			c-0.034,0.042-0.051,0.079-0.051,0.112c0,0.009,0.008,0.025,0.026,0.051l0.316,0.301c0.184,0.177,0.276,0.429,0.276,0.756
			c0,0.503-0.226,0.862-0.676,1.08c-0.104,0.076-0.156,0.127-0.156,0.15c0,0.034,0.025,0.076,0.076,0.127l0.239,0.163
			c0.311,0.167,0.467,0.481,0.467,0.942c0,0.494-0.203,0.847-0.606,1.057c-0.134,0.075-0.202,0.139-0.202,0.188
			c0,0.051,0.05,0.102,0.151,0.15c0.437,0.192,0.656,0.545,0.656,1.057c0,0.822-0.467,1.232-1.401,1.232
			c-0.513,0-0.866-0.051-1.059-0.152c-0.413-0.227-0.619-0.58-0.619-1.06c0-0.446,0.181-0.781,0.542-1.009
			c0.185-0.117,0.277-0.193,0.277-0.227c0-0.051-0.118-0.147-0.353-0.291c-0.311-0.185-0.467-0.504-0.467-0.958
			c0-0.446,0.172-0.774,0.518-0.984l0.252-0.151c0.033-0.034,0.05-0.06,0.05-0.076c0-0.032-0.017-0.066-0.05-0.101l-0.278-0.151
			c-0.328-0.235-0.492-0.571-0.492-1.009c0-0.455,0.172-0.781,0.518-0.984c0.202-0.126,0.302-0.206,0.302-0.239
			c-0.008-0.042-0.026-0.066-0.052-0.076l-0.259-0.176c-0.339-0.229-0.508-0.555-0.508-0.984c0-0.514,0.212-0.875,0.638-1.085
			c0.122-0.059,0.182-0.109,0.182-0.151c0-0.06-0.052-0.11-0.156-0.151c-0.442-0.202-0.664-0.576-0.664-1.123
			c0-0.513,0.23-0.874,0.69-1.084c0.087-0.025,0.13-0.067,0.13-0.127c0-0.025-0.13-0.126-0.39-0.303
			c-0.287-0.193-0.43-0.505-0.43-0.934c0-0.344,0.148-0.656,0.445-0.934c0.22-0.201,0.636-0.303,1.246-0.303
			c0.958,0,1.437,0.413,1.437,1.236c0,0.446-0.244,0.824-0.731,1.136c-0.042,0.025-0.068,0.059-0.076,0.101
			c0,0.043,0.026,0.076,0.078,0.102c0.486,0.261,0.729,0.643,0.729,1.147c0,0.354-0.101,0.617-0.302,0.795l-0.315,0.29v0.05
			c0,0.042,0.014,0.073,0.044,0.095c0.03,0.022,0.116,0.032,0.259,0.032h4.957C64.957,261.673,65.457,262.076,65.457,262.884z
			 M66.718,255.44c0,0.832-0.446,1.249-1.337,1.249h-5.374c-0.378,0-0.691-0.115-0.939-0.347c-0.249-0.231-0.372-0.523-0.372-0.877
			c0-0.84,0.496-1.261,1.488-1.261h5.298C66.306,254.205,66.718,254.616,66.718,255.44z"/>
		<path d="M77.996,262.808c0,0.37-0.127,0.67-0.379,0.896c-0.252,0.227-0.576,0.34-0.972,0.34h-4.882
			c-0.277,0-0.437,0.021-0.479,0.063c-0.025,0.009-0.038,0.034-0.038,0.075c0,0.042,0.059,0.102,0.177,0.177
			c0.277,0.244,0.416,0.563,0.416,0.959c0,0.463-0.181,0.794-0.542,0.997c-0.168,0.1-0.253,0.172-0.253,0.214
			c0,0.034,0.084,0.101,0.253,0.202c0.361,0.218,0.542,0.556,0.542,1.009c0,0.824-0.475,1.235-1.424,1.235
			c-1.094,0-1.641-0.402-1.641-1.21c0-0.479,0.239-0.849,0.716-1.11c0.07-0.066,0.104-0.108,0.104-0.126
			c0-0.05-0.104-0.13-0.312-0.239c-0.338-0.169-0.507-0.501-0.507-0.997c0-0.546,0.212-0.899,0.638-1.06
			c0.122-0.051,0.182-0.105,0.182-0.164c-0.008-0.041-0.026-0.066-0.052-0.076l-0.352-0.201c-0.277-0.169-0.416-0.497-0.416-0.984
			c0-0.454,0.178-0.79,0.534-1.009l0.208-0.101c0.035-0.018,0.052-0.043,0.052-0.076c0-0.034-0.017-0.066-0.05-0.101l-0.341-0.239
			c-0.269-0.194-0.403-0.506-0.403-0.935c0-0.437,0.16-0.752,0.479-0.945l0.265-0.164c0.033-0.017,0.05-0.042,0.05-0.076
			c0-0.067-0.008-0.101-0.025-0.101l-0.391-0.252c-0.252-0.178-0.378-0.472-0.378-0.884c0-0.841,0.512-1.262,1.539-1.262
			c1.017,0,1.526,0.413,1.526,1.237c0,0.42-0.126,0.724-0.379,0.908l-0.366,0.252c-0.034,0.017-0.051,0.042-0.051,0.075
			c0,0.034,0.017,0.068,0.051,0.102l0.303,0.189c0.294,0.168,0.441,0.483,0.441,0.945c0,0.438-0.156,0.757-0.467,0.958
			c-0.084,0.061-0.126,0.114-0.126,0.165c0,0.085,0.172,0.126,0.517,0.126h4.958C77.571,261.622,77.996,262.018,77.996,262.808z
			 M80.443,255.409c0,0.301-0.123,0.583-0.367,0.848c-0.244,0.264-0.5,0.396-0.769,0.396h-6.736c-0.387,0-0.705-0.115-0.952-0.345
			c-0.249-0.23-0.373-0.521-0.373-0.873c0-0.335,0.118-0.622,0.353-0.866c0.236-0.243,0.513-0.363,0.833-0.363h6.724
			c0.361,0,0.666,0.114,0.915,0.345C80.319,254.779,80.443,255.065,80.443,255.409z M80.468,270.199
			c0,0.312-0.119,0.596-0.359,0.853c-0.24,0.257-0.507,0.385-0.801,0.385h-6.635c-0.95,0-1.426-0.404-1.426-1.212
			c0-0.31,0.114-0.586,0.34-0.825c0.228-0.24,0.484-0.359,0.77-0.359l7.266,0.05c0.227,0.034,0.425,0.164,0.593,0.392
			C80.384,269.709,80.468,269.947,80.468,270.199z"/>
		<path d="M85.451,260.437c0,0.437-0.22,0.777-0.659,1.021c-0.177,0.109-0.468,0.164-0.874,0.164h-0.215
			c-0.38,0-0.699-0.119-0.956-0.359c-0.258-0.24-0.386-0.535-0.386-0.89c0-0.437,0.155-0.753,0.466-0.945l0.277-0.189
			c0.034-0.033,0.051-0.059,0.051-0.076c-0.009-0.042-0.025-0.075-0.051-0.101l-0.328-0.202c-0.277-0.177-0.416-0.487-0.416-0.934
			c0-0.823,0.494-1.236,1.481-1.236c1.072,0,1.609,0.421,1.609,1.262c0,0.438-0.167,0.757-0.5,0.958l-0.269,0.152
			c-0.034,0.033-0.052,0.067-0.052,0.101c0.008,0.025,0.018,0.051,0.025,0.076l0.372,0.24
			C85.31,259.654,85.451,259.974,85.451,260.437z M85.451,267.74c0,0.479-0.213,0.833-0.639,1.06
			c-0.188,0.102-0.481,0.15-0.881,0.15c-0.459,0-0.8-0.066-1.021-0.201c-0.366-0.227-0.549-0.537-0.549-0.933
			c0-0.857,0.489-1.287,1.468-1.287c0.459,0,0.796,0.06,1.009,0.177C85.247,266.934,85.451,267.278,85.451,267.74z M92.792,262.808
			c0,0.362-0.122,0.662-0.365,0.902c-0.244,0.24-0.551,0.359-0.921,0.359H86.41c-1.068,0-1.602-0.411-1.602-1.236
			c0-0.454,0.209-0.808,0.63-1.06c0.168-0.101,0.441-0.151,0.82-0.151h5.248c0.37,0,0.677,0.114,0.921,0.341
			C92.671,262.189,92.792,262.472,92.792,262.808z M92.792,270.193c0,0.828-0.454,1.243-1.362,1.243h-5.349
			c-0.361,0-0.664-0.118-0.908-0.355c-0.244-0.237-0.365-0.523-0.365-0.862c0-0.473,0.197-0.823,0.592-1.052
			c0.194-0.118,0.542-0.178,1.047-0.178h5.008c0.387,0,0.707,0.112,0.959,0.336C92.667,269.549,92.792,269.839,92.792,270.193z
			 M92.792,255.416c0,0.85-0.585,1.273-1.753,1.273c-0.185,0-0.324-0.008-0.417-0.025h-4.39c-0.925,0-1.388-0.407-1.388-1.224
			c0-0.486,0.207-0.84,0.619-1.06c0.227-0.118,0.588-0.176,1.084-0.176h4.44c0.622,0,1.035,0.058,1.236,0.176
			C92.604,254.609,92.792,254.954,92.792,255.416z M95.291,257.901c0,0.487-0.215,0.849-0.646,1.084
			c-0.194,0.102-0.499,0.151-0.912,0.151c-1.022,0-1.533-0.412-1.533-1.235c0-0.808,0.494-1.212,1.482-1.212
			C94.754,256.689,95.291,257.094,95.291,257.901z M95.291,267.74c0,0.361-0.14,0.681-0.421,0.958
			c-0.188,0.186-0.605,0.277-1.252,0.277c-0.945,0-1.417-0.402-1.417-1.21c0-0.472,0.181-0.807,0.542-1.009
			c0.177-0.092,0.266-0.161,0.266-0.203c0-0.066-0.034-0.108-0.101-0.125c-0.471-0.261-0.707-0.622-0.707-1.085
			c0-0.832,0.541-1.249,1.623-1.249c0.979,0,1.468,0.407,1.468,1.224c0,0.445-0.154,0.762-0.462,0.946l-0.292,0.189
			c-0.044,0.033-0.065,0.059-0.065,0.075c0,0.075,0.075,0.143,0.225,0.202C95.092,266.917,95.291,267.253,95.291,267.74z"/>
		<path d="M109.798,255.409c0,0.828-0.484,1.243-1.451,1.243h-3.481c-0.396,0-0.593,0.041-0.593,0.126
			c0,0.017,0.008,0.033,0.026,0.05l0.309,0.305c0.181,0.176,0.271,0.445,0.271,0.807c0,0.514-0.209,0.867-0.628,1.062
			c-0.111,0.051-0.167,0.1-0.167,0.15s0.009,0.085,0.026,0.102l0.32,0.215c0.299,0.194,0.449,0.504,0.449,0.934
			c0,0.514-0.209,0.863-0.628,1.048c-0.128,0.076-0.192,0.139-0.192,0.189s0.064,0.102,0.192,0.152
			c0.418,0.186,0.628,0.546,0.628,1.085c0,0.472-0.227,0.834-0.68,1.086c-0.094,0.051-0.14,0.102-0.14,0.151
			c0,0.043,0.055,0.089,0.167,0.139c0.436,0.193,0.653,0.565,0.653,1.111c0,0.514-0.184,0.859-0.551,1.036
			c-0.179,0.075-0.269,0.134-0.269,0.176c0,0.06,0.07,0.118,0.211,0.178c0.405,0.201,0.609,0.555,0.609,1.06
			c0,0.447-0.154,0.767-0.459,0.959c-0.224,0.145-0.336,0.24-0.336,0.291c0,0.042,0.063,0.093,0.187,0.152
			c0.406,0.194,0.609,0.546,0.609,1.061c0,0.824-0.503,1.237-1.508,1.237c-0.448,0-0.777-0.06-0.988-0.178
			c-0.397-0.235-0.595-0.58-0.595-1.035c0-0.471,0.16-0.799,0.481-0.983l0.274-0.152c0.051-0.033,0.078-0.059,0.078-0.076
			c0-0.067-0.026-0.113-0.078-0.139l-0.299-0.178c-0.304-0.185-0.456-0.504-0.456-0.959c0-0.463,0.178-0.799,0.533-1.009
			c0.2-0.11,0.299-0.178,0.299-0.203c-0.008-0.042-0.026-0.075-0.052-0.101l-0.377-0.24c-0.269-0.159-0.403-0.459-0.403-0.896
			c0-0.453,0.152-0.774,0.456-0.959l0.299-0.177c0.043-0.025,0.069-0.063,0.078-0.114c0-0.033-0.131-0.135-0.391-0.302
			c-0.294-0.194-0.441-0.515-0.441-0.96c0-0.506,0.231-0.868,0.694-1.086c0.092-0.06,0.139-0.102,0.139-0.127
			c-0.008-0.051-0.034-0.083-0.076-0.102l-0.24-0.139c-0.345-0.185-0.517-0.518-0.517-0.997c0-0.462,0.164-0.79,0.492-0.984
			c0.209-0.125,0.315-0.215,0.315-0.266s-0.017-0.074-0.05-0.074l-0.265-0.178c-0.328-0.236-0.492-0.556-0.492-0.96
			s0.156-0.732,0.467-0.984c0.101-0.059,0.151-0.118,0.151-0.177c0-0.085-0.172-0.126-0.518-0.126h-3.746
			c-0.37,0-0.681-0.115-0.934-0.345c-0.252-0.23-0.378-0.521-0.378-0.873c0-0.36,0.128-0.655,0.384-0.885
			c0.257-0.23,0.586-0.345,0.99-0.345h10.143c0.354,0,0.622,0.051,0.807,0.15C109.583,254.599,109.798,254.949,109.798,255.409z"/>
		<path d="M114.642,260.318c0,0.507-0.208,0.87-0.623,1.089c-0.196,0.109-0.534,0.164-1.018,0.164c-0.976,0-1.462-0.408-1.462-1.228
			c0-0.506,0.225-0.868,0.677-1.088c0.087-0.043,0.13-0.093,0.13-0.152c-0.008-0.051-0.042-0.093-0.101-0.127
			c-0.472-0.303-0.707-0.684-0.707-1.139c0-0.464,0.172-0.794,0.517-0.987c0.193-0.11,0.29-0.189,0.29-0.24
			c0-0.034-0.063-0.085-0.189-0.152c-0.412-0.22-0.618-0.574-0.618-1.064c0-0.843,0.466-1.265,1.4-1.265
			c0.504,0,0.849,0.051,1.034,0.152c0.429,0.244,0.643,0.606,0.643,1.089c0,0.497-0.181,0.834-0.542,1.012
			c-0.176,0.119-0.265,0.194-0.265,0.229c0.018,0.051,0.038,0.08,0.063,0.088l0.227,0.152c0.361,0.193,0.542,0.531,0.542,1.013
			c0,0.497-0.223,0.859-0.668,1.088c-0.084,0.042-0.126,0.085-0.126,0.127c0,0.059,0.067,0.127,0.202,0.203
			C114.444,259.501,114.642,259.847,114.642,260.318z M114.692,267.74c0,0.472-0.215,0.833-0.644,1.085
			c-0.209,0.118-0.538,0.176-0.983,0.176c-0.984,0-1.477-0.402-1.477-1.21c0-0.487,0.21-0.851,0.631-1.085
			c0.177-0.102,0.492-0.152,0.946-0.152C114.183,266.554,114.692,266.949,114.692,267.74z M124.532,267.689
			c0,0.842-0.542,1.261-1.627,1.261c-0.942,0-1.413-0.408-1.413-1.229c0-0.493,0.189-0.837,0.568-1.027
			c0.134-0.067,0.202-0.126,0.202-0.177c0-0.034-0.017-0.067-0.05-0.1l-0.228-0.139c-0.345-0.184-0.517-0.527-0.517-1.03
			c0-0.376,0.177-0.71,0.53-1.002c0.042-0.035,0.063-0.076,0.063-0.127c-0.009-0.008-0.015-0.019-0.02-0.03
			c-0.004-0.014-0.006-0.028-0.006-0.045h-0.051h-0.29h-6.408c-0.336,0-0.626-0.127-0.87-0.379s-0.366-0.546-0.366-0.882
			c0-0.328,0.116-0.616,0.347-0.865c0.231-0.248,0.494-0.372,0.789-0.372h6.749c0.067,0,0.101-0.037,0.101-0.113
			c0-0.058-0.057-0.117-0.171-0.176c-0.298-0.229-0.448-0.548-0.448-0.959c0-0.479,0.179-0.808,0.535-0.983
			c0.19-0.093,0.286-0.178,0.286-0.253c0-0.025-0.017-0.051-0.052-0.076l-0.351-0.24c-0.278-0.185-0.417-0.49-0.417-0.92
			c0-0.488,0.187-0.824,0.561-1.009c0.173-0.093,0.26-0.164,0.26-0.215c-0.008-0.042-0.025-0.067-0.05-0.076l-0.228-0.151
			c-0.361-0.243-0.542-0.58-0.542-1.009c0-0.825,0.497-1.236,1.489-1.236c0.496,0,0.84,0.066,1.034,0.203
			c0.361,0.252,0.542,0.588,0.542,1.008c0,0.496-0.198,0.858-0.593,1.085c-0.118,0.042-0.176,0.093-0.176,0.151
			c0,0.066,0.051,0.131,0.156,0.189c0.442,0.235,0.664,0.597,0.664,1.085c0,0.462-0.188,0.8-0.561,1.009
			c-0.173,0.092-0.259,0.161-0.259,0.202c0,0.067,0.043,0.109,0.13,0.126c0.459,0.227,0.69,0.597,0.69,1.11
			c0,0.479-0.205,0.832-0.613,1.059c-0.122,0.076-0.183,0.14-0.183,0.189c0,0.042,0.034,0.084,0.102,0.127
			c0.462,0.285,0.694,0.655,0.694,1.11c0,0.395-0.172,0.723-0.518,0.983l-0.202,0.15c-0.051,0.025-0.076,0.051-0.076,0.076
			c0,0.035,0.017,0.067,0.051,0.102l0.366,0.265c0.253,0.185,0.379,0.487,0.379,0.908c0,0.446-0.135,0.745-0.404,0.896l-0.366,0.266
			c-0.008,0.008-0.017,0.025-0.025,0.051c0,0.05,0.076,0.109,0.228,0.176C124.342,266.815,124.532,267.16,124.532,267.689z
			 M122.084,270.176c0,0.345-0.12,0.64-0.359,0.89c-0.24,0.247-0.532,0.371-0.877,0.371h-5.462c-0.371,0-0.681-0.116-0.934-0.348
			c-0.252-0.231-0.378-0.52-0.378-0.864c0-0.319,0.122-0.597,0.366-0.832c0.243-0.234,0.525-0.353,0.845-0.353l5.74-0.039
			c0.269-0.016,0.513,0.098,0.732,0.342C121.975,269.586,122.084,269.864,122.084,270.176z"/>
		<path d="M130.712,267.715c0,0.842-0.486,1.261-1.457,1.261c-0.473,0-0.811-0.058-1.013-0.176
			c-0.414-0.243-0.621-0.605-0.621-1.085c0-0.404,0.181-0.73,0.542-0.983c0.168-0.117,0.252-0.193,0.252-0.228
			c0-0.033-0.101-0.121-0.303-0.265c-0.328-0.176-0.492-0.5-0.492-0.972c0-0.538,0.206-0.899,0.618-1.085
			c0.118-0.041,0.177-0.088,0.177-0.139s-0.101-0.134-0.303-0.252c-0.328-0.185-0.492-0.514-0.492-0.984
			c0-0.505,0.214-0.866,0.643-1.085c0.102-0.05,0.151-0.101,0.151-0.151c0-0.041-0.092-0.122-0.277-0.24
			c-0.345-0.21-0.517-0.546-0.517-1.009c0-0.495,0.222-0.865,0.668-1.109c0.101-0.051,0.151-0.093,0.151-0.126
			c0-0.025-0.042-0.066-0.126-0.127c-0.462-0.235-0.694-0.613-0.694-1.135c0-0.496,0.198-0.841,0.593-1.034
			c0.134-0.067,0.201-0.13,0.201-0.189c-0.008-0.042-0.025-0.076-0.05-0.101l-0.328-0.203c-0.278-0.167-0.417-0.479-0.417-0.933
			c0-0.825,0.486-1.236,1.457-1.236c0.482,0,0.824,0.06,1.026,0.178c0.405,0.233,0.608,0.588,0.608,1.059
			c0,0.496-0.222,0.858-0.667,1.085c-0.085,0.051-0.128,0.101-0.128,0.151c0,0.041,0.098,0.122,0.294,0.24
			c0.333,0.201,0.5,0.546,0.5,1.034c0,0.428-0.23,0.79-0.691,1.084c-0.061,0.017-0.095,0.051-0.103,0.102
			c0,0.084,0.06,0.151,0.18,0.202c0.41,0.193,0.615,0.529,0.615,1.009c0,0.513-0.167,0.857-0.5,1.033
			c-0.196,0.111-0.294,0.199-0.294,0.266c0.008,0.042,0.026,0.076,0.051,0.102l0.243,0.126c0.333,0.185,0.5,0.521,0.5,1.009
			c0,0.413-0.149,0.732-0.448,0.959c-0.23,0.127-0.346,0.211-0.346,0.252c0,0.042,0.089,0.13,0.269,0.266
			c0.351,0.186,0.525,0.512,0.525,0.983c0,0.463-0.167,0.796-0.5,0.997c-0.196,0.125-0.294,0.206-0.294,0.239
			c0,0.05,0.008,0.085,0.026,0.101l0.397,0.266C130.588,267.03,130.712,267.311,130.712,267.715z M139.354,270.199
			c0,0.363-0.118,0.658-0.353,0.89c-0.236,0.231-0.542,0.348-0.921,0.348h-6.635c-0.387,0-0.709-0.116-0.965-0.348
			c-0.257-0.231-0.385-0.52-0.385-0.864c0-0.37,0.139-0.673,0.416-0.907c0.227-0.185,0.677-0.277,1.35-0.277h6.168
			c0.387,0,0.705,0.109,0.952,0.327C139.229,269.586,139.354,269.864,139.354,270.199z"/>
		<path d="M150.467,262.808c0,0.37-0.126,0.67-0.378,0.896c-0.252,0.227-0.576,0.34-0.972,0.34h-4.882
			c-0.277,0-0.437,0.021-0.479,0.063c-0.025,0.009-0.038,0.034-0.038,0.075c0,0.042,0.059,0.102,0.176,0.177
			c0.277,0.244,0.417,0.563,0.417,0.959c0,0.463-0.181,0.794-0.542,0.997c-0.168,0.1-0.252,0.172-0.252,0.214
			c0,0.034,0.084,0.101,0.252,0.202c0.362,0.218,0.542,0.556,0.542,1.009c0,0.824-0.474,1.235-1.424,1.235
			c-1.094,0-1.641-0.402-1.641-1.21c0-0.479,0.238-0.849,0.716-1.11c0.069-0.066,0.104-0.108,0.104-0.126
			c0-0.05-0.104-0.13-0.312-0.239c-0.338-0.169-0.507-0.501-0.507-0.997c0-0.546,0.212-0.899,0.638-1.06
			c0.122-0.051,0.182-0.105,0.182-0.164c-0.008-0.041-0.026-0.066-0.052-0.076l-0.352-0.201c-0.277-0.169-0.416-0.497-0.416-0.984
			c0-0.454,0.178-0.79,0.534-1.009l0.208-0.101c0.035-0.018,0.052-0.043,0.052-0.076c0-0.034-0.017-0.066-0.05-0.101l-0.341-0.239
			c-0.269-0.194-0.403-0.506-0.403-0.935c0-0.437,0.159-0.752,0.479-0.945l0.265-0.164c0.033-0.017,0.05-0.042,0.05-0.076
			c0-0.067-0.008-0.101-0.025-0.101l-0.392-0.252c-0.252-0.178-0.378-0.472-0.378-0.884c0-0.841,0.512-1.262,1.539-1.262
			c1.017,0,1.526,0.413,1.526,1.237c0,0.42-0.126,0.724-0.378,0.908l-0.366,0.252c-0.034,0.017-0.051,0.042-0.051,0.075
			c0,0.034,0.017,0.068,0.051,0.102l0.303,0.189c0.294,0.168,0.441,0.483,0.441,0.945c0,0.438-0.155,0.757-0.466,0.958
			c-0.084,0.061-0.126,0.114-0.126,0.165c0,0.085,0.172,0.126,0.517,0.126h4.958C150.042,261.622,150.467,262.018,150.467,262.808z
			 M152.916,255.409c0,0.301-0.123,0.583-0.367,0.848c-0.245,0.264-0.502,0.396-0.771,0.396h-6.735
			c-0.387,0-0.704-0.115-0.952-0.345c-0.248-0.23-0.373-0.521-0.373-0.873c0-0.335,0.118-0.622,0.353-0.866
			c0.236-0.243,0.513-0.363,0.833-0.363h6.722c0.364,0,0.669,0.114,0.917,0.345C152.79,254.779,152.916,255.065,152.916,255.409z
			 M152.939,270.199c0,0.312-0.119,0.596-0.358,0.853c-0.241,0.257-0.507,0.385-0.803,0.385h-6.635c-0.95,0-1.425-0.404-1.425-1.212
			c0-0.31,0.114-0.586,0.34-0.825c0.228-0.24,0.483-0.359,0.77-0.359l7.266,0.05c0.227,0.034,0.424,0.164,0.594,0.392
			C152.855,269.709,152.939,269.947,152.939,270.199z"/>
		<path d="M168.291,257.825c0,0.37-0.128,0.677-0.385,0.92c-0.257,0.245-0.576,0.367-0.964,0.367h-1.653
			c-0.065,0-0.102,0.033-0.102,0.101c0,0.041,0.071,0.113,0.212,0.215c0.286,0.201,0.433,0.509,0.433,0.92
			c0,0.463-0.161,0.782-0.48,0.958l-0.313,0.19c-0.026,0.018-0.039,0.05-0.039,0.101c0,0.059,0.075,0.118,0.222,0.177
			c0.408,0.219,0.611,0.555,0.611,1.01c0,0.495-0.179,0.85-0.534,1.06c-0.2,0.084-0.299,0.16-0.299,0.227
			c0.01,0.025,0.021,0.051,0.039,0.076l0.277,0.188c0.311,0.193,0.466,0.522,0.466,0.984c0,0.454-0.146,0.769-0.441,0.946
			c-0.227,0.144-0.341,0.239-0.341,0.289c0,0.035,0.123,0.14,0.367,0.316c0.278,0.193,0.415,0.5,0.415,0.921
			c0,0.479-0.164,0.808-0.492,0.983c-0.194,0.127-0.29,0.215-0.29,0.266c0,0.042,0.096,0.126,0.29,0.252
			c0.328,0.218,0.492,0.537,0.492,0.958c0,0.842-0.507,1.263-1.525,1.263c-0.447,0-0.767-0.06-0.961-0.178
			c-0.394-0.252-0.591-0.611-0.591-1.083c0-0.495,0.206-0.839,0.618-1.033c0.125-0.058,0.188-0.116,0.188-0.176
			c0-0.051-0.062-0.104-0.188-0.164c-0.412-0.184-0.618-0.545-0.618-1.083c0-0.436,0.164-0.765,0.493-0.982l0.238-0.15
			c0.042-0.025,0.065-0.06,0.074-0.102c-0.009-0.051-0.023-0.076-0.051-0.076l-0.312-0.213c-0.296-0.192-0.442-0.509-0.442-0.945
			c0-0.487,0.171-0.821,0.517-1.007c0.176-0.118,0.266-0.198,0.266-0.24c0-0.051-0.09-0.125-0.266-0.227
			c-0.346-0.209-0.517-0.554-0.517-1.033c0-0.521,0.221-0.882,0.669-1.083c0.093-0.042,0.137-0.084,0.137-0.127
			c0-0.058-0.122-0.162-0.363-0.314c-0.296-0.177-0.442-0.496-0.442-0.957c0-0.504,0.197-0.848,0.591-1.032
			c0.144-0.085,0.215-0.144,0.215-0.176c0-0.067-0.071-0.136-0.215-0.202c-0.394-0.201-0.591-0.555-0.591-1.06
			c0-0.436,0.155-0.764,0.466-0.981l0.289-0.15c0.036-0.034,0.051-0.072,0.051-0.113c-0.009-0.042-0.023-0.067-0.051-0.076
			l-0.262-0.151c-0.329-0.193-0.493-0.529-0.493-1.007c0-0.824,0.466-1.235,1.4-1.235c0.639,0,1.086,0.12,1.343,0.362
			s0.385,0.528,0.385,0.861c0,0.383-0.164,0.707-0.492,0.974c-0.084,0.084-0.126,0.143-0.126,0.175c0,0.067,0.107,0.101,0.329,0.101
			h1.524c0.328,0,0.615,0.117,0.859,0.354C168.169,257.216,168.291,257.496,168.291,257.825z M170.766,260.322
			c0,0.85-0.502,1.274-1.502,1.274c-0.438,0-0.755-0.062-0.945-0.189c-0.439-0.261-0.657-0.613-0.657-1.06
			c0-0.823,0.483-1.235,1.451-1.235C170.213,259.112,170.766,259.516,170.766,260.322z M175.723,270.275
			c0,0.488-0.215,0.85-0.645,1.085c-0.186,0.102-0.483,0.152-0.896,0.152c-1.033,0-1.552-0.413-1.552-1.237
			c0-0.479,0.19-0.823,0.566-1.034c0.152-0.083,0.23-0.143,0.23-0.176c0-0.051-0.11-0.147-0.329-0.291
			c-0.312-0.192-0.468-0.513-0.468-0.958c0-0.446,0.155-0.761,0.468-0.946l0.278-0.215c0.032-0.016,0.051-0.041,0.051-0.076
			c-0.01-0.041-0.027-0.075-0.051-0.1l-0.316-0.215c-0.287-0.194-0.43-0.509-0.43-0.946c0-0.386,0.134-0.689,0.402-0.908
			c0.11-0.084,0.173-0.151,0.191-0.202c0-0.092-0.081-0.139-0.239-0.139h-1.289c-1.032,0-1.549-0.404-1.549-1.211
			c0-0.311,0.116-0.595,0.353-0.851c0.235-0.257,0.486-0.386,0.755-0.386h1.868c0.068,0,0.102-0.034,0.102-0.101
			c0-0.076-0.062-0.155-0.191-0.239c-0.269-0.185-0.402-0.497-0.402-0.935c0-0.487,0.173-0.82,0.519-0.996
			c0.186-0.101,0.278-0.172,0.278-0.215c0-0.05-0.01-0.084-0.027-0.101l-0.415-0.291c-0.235-0.159-0.354-0.441-0.354-0.844
			c0-0.488,0.164-0.824,0.492-1.009c0.218-0.127,0.328-0.215,0.328-0.266c-0.009-0.042-0.026-0.076-0.051-0.102l-0.263-0.151
			c-0.337-0.193-0.507-0.521-0.507-0.983c0-0.825,0.531-1.236,1.591-1.236c0.999,0,1.501,0.411,1.501,1.236
			c0,0.471-0.144,0.79-0.43,0.958l-0.316,0.177c-0.033,0.034-0.048,0.068-0.048,0.102c0.006,0.051,0.032,0.088,0.074,0.113
			l0.227,0.127c0.329,0.235,0.493,0.571,0.493,1.009c0,0.428-0.239,0.807-0.72,1.135c-0.051,0.051-0.074,0.084-0.074,0.102
			c0,0.059,0.113,0.155,0.34,0.29c0.302,0.176,0.454,0.5,0.454,0.971c0,0.446-0.152,0.766-0.454,0.958l-0.292,0.19
			c-0.033,0.034-0.048,0.06-0.048,0.075c0,0.042,0.093,0.118,0.277,0.228c0.343,0.21,0.517,0.538,0.517,0.983
			c0,0.446-0.126,0.758-0.379,0.934c-0.278,0.186-0.415,0.303-0.415,0.354c0.006,0.051,0.032,0.088,0.074,0.113l0.316,0.202
			c0.269,0.185,0.403,0.497,0.403,0.934c0,0.438-0.164,0.762-0.493,0.972l-0.227,0.164c-0.051,0.024-0.074,0.059-0.074,0.1
			c0.006,0.051,0.032,0.086,0.074,0.102l0.316,0.215c0.269,0.177,0.403,0.475,0.403,0.896c0,0.479-0.164,0.814-0.493,1.009
			c-0.202,0.127-0.301,0.215-0.301,0.266c0,0.042,0.057,0.101,0.176,0.176c0.024,0.01,0.051,0.025,0.075,0.051
			C175.54,269.535,175.723,269.864,175.723,270.275z"/>
		<path d="M188.033,262.808c0,0.37-0.126,0.67-0.379,0.896c-0.251,0.227-0.576,0.34-0.971,0.34h-4.882
			c-0.277,0-0.436,0.021-0.478,0.063c-0.027,0.009-0.039,0.034-0.039,0.075c0,0.042,0.06,0.102,0.176,0.177
			c0.278,0.244,0.418,0.563,0.418,0.959c0,0.463-0.182,0.794-0.543,0.997c-0.17,0.1-0.254,0.172-0.254,0.214
			c0,0.034,0.084,0.101,0.254,0.202c0.361,0.218,0.543,0.556,0.543,1.009c0,0.824-0.478,1.235-1.426,1.235
			c-1.093,0-1.642-0.402-1.642-1.21c0-0.479,0.238-0.849,0.716-1.11c0.071-0.066,0.104-0.108,0.104-0.126
			c0-0.05-0.104-0.13-0.313-0.239c-0.337-0.169-0.507-0.501-0.507-0.997c0-0.546,0.215-0.899,0.639-1.06
			c0.122-0.051,0.182-0.105,0.182-0.164c-0.009-0.041-0.026-0.066-0.051-0.076l-0.352-0.201c-0.278-0.169-0.418-0.497-0.418-0.984
			c0-0.454,0.179-0.79,0.534-1.009l0.209-0.101c0.035-0.018,0.054-0.043,0.054-0.076c0-0.034-0.019-0.066-0.051-0.101l-0.341-0.239
			c-0.271-0.194-0.405-0.506-0.405-0.935c0-0.437,0.161-0.752,0.48-0.945l0.266-0.164c0.032-0.017,0.051-0.042,0.051-0.076
			c0-0.067-0.01-0.101-0.027-0.101l-0.391-0.252c-0.251-0.178-0.379-0.472-0.379-0.884c0-0.841,0.513-1.262,1.54-1.262
			c1.018,0,1.527,0.413,1.527,1.237c0,0.42-0.128,0.724-0.379,0.908l-0.367,0.252c-0.032,0.017-0.051,0.042-0.051,0.075
			c0,0.034,0.019,0.068,0.051,0.102l0.305,0.189c0.292,0.168,0.441,0.483,0.441,0.945c0,0.438-0.158,0.757-0.469,0.958
			c-0.083,0.061-0.125,0.114-0.125,0.165c0,0.085,0.173,0.126,0.517,0.126h4.957C187.609,261.622,188.033,262.018,188.033,262.808z
			 M190.48,255.409c0,0.301-0.123,0.583-0.364,0.848c-0.245,0.264-0.502,0.396-0.771,0.396h-6.735c-0.388,0-0.704-0.115-0.952-0.345
			c-0.251-0.23-0.373-0.521-0.373-0.873c0-0.335,0.116-0.622,0.353-0.866c0.235-0.243,0.513-0.363,0.832-0.363h6.725
			c0.36,0,0.665,0.114,0.916,0.345C190.357,254.779,190.48,255.065,190.48,255.409z M190.507,270.199
			c0,0.312-0.119,0.596-0.361,0.853c-0.238,0.257-0.507,0.385-0.8,0.385h-6.634c-0.952,0-1.427-0.404-1.427-1.212
			c0-0.31,0.113-0.586,0.34-0.825c0.228-0.24,0.484-0.359,0.771-0.359l7.267,0.05c0.228,0.034,0.424,0.164,0.591,0.392
			C190.424,269.709,190.507,269.947,190.507,270.199z"/>
		<path d="M204.85,255.409c0,0.828-0.483,1.243-1.45,1.243h-3.482c-0.395,0-0.594,0.041-0.594,0.126c0,0.017,0.009,0.033,0.026,0.05
			l0.308,0.305c0.182,0.176,0.271,0.445,0.271,0.807c0,0.514-0.209,0.867-0.627,1.062c-0.11,0.051-0.167,0.1-0.167,0.15
			s0.009,0.085,0.027,0.102l0.319,0.215c0.298,0.194,0.447,0.504,0.447,0.934c0,0.514-0.209,0.863-0.627,1.048
			c-0.128,0.076-0.193,0.139-0.193,0.189s0.065,0.102,0.193,0.152c0.418,0.186,0.627,0.546,0.627,1.085
			c0,0.472-0.227,0.834-0.678,1.086c-0.095,0.051-0.143,0.102-0.143,0.151c0,0.043,0.057,0.089,0.167,0.139
			c0.436,0.193,0.653,0.565,0.653,1.111c0,0.514-0.182,0.859-0.549,1.036c-0.183,0.075-0.271,0.134-0.271,0.176
			c0,0.06,0.071,0.118,0.212,0.178c0.405,0.201,0.608,0.555,0.608,1.06c0,0.447-0.152,0.767-0.46,0.959
			c-0.224,0.145-0.334,0.24-0.334,0.291c0,0.042,0.062,0.093,0.186,0.152c0.405,0.194,0.608,0.546,0.608,1.061
			c0,0.824-0.501,1.237-1.507,1.237c-0.448,0-0.776-0.06-0.988-0.178c-0.396-0.235-0.594-0.58-0.594-1.035
			c0-0.471,0.158-0.799,0.48-0.983l0.271-0.152c0.054-0.033,0.081-0.059,0.081-0.076c0-0.067-0.027-0.113-0.081-0.139l-0.298-0.178
			c-0.302-0.185-0.454-0.504-0.454-0.959c0-0.463,0.176-0.799,0.531-1.009c0.2-0.11,0.302-0.178,0.302-0.203
			c-0.009-0.042-0.027-0.075-0.054-0.101l-0.376-0.24c-0.269-0.159-0.403-0.459-0.403-0.896c0-0.453,0.152-0.774,0.454-0.959
			l0.298-0.177c0.045-0.025,0.072-0.063,0.081-0.114c0-0.033-0.132-0.135-0.392-0.302c-0.295-0.194-0.441-0.515-0.441-0.96
			c0-0.506,0.229-0.868,0.692-1.086c0.093-0.06,0.141-0.102,0.141-0.127c-0.009-0.051-0.036-0.083-0.078-0.102l-0.238-0.139
			c-0.347-0.185-0.517-0.518-0.517-0.997c0-0.462,0.164-0.79,0.489-0.984c0.212-0.125,0.316-0.215,0.316-0.266
			s-0.015-0.074-0.051-0.074l-0.266-0.178c-0.325-0.236-0.489-0.556-0.489-0.96s0.155-0.732,0.466-0.984
			c0.102-0.059,0.152-0.118,0.152-0.177c0-0.085-0.174-0.126-0.52-0.126h-3.745c-0.37,0-0.681-0.115-0.935-0.345
			c-0.251-0.23-0.379-0.521-0.379-0.873c0-0.36,0.128-0.655,0.385-0.885c0.257-0.23,0.588-0.345,0.991-0.345h10.144
			c0.353,0,0.621,0.051,0.806,0.15C204.635,254.599,204.85,254.949,204.85,255.409z"/>
		<path d="M210.046,257.869c0,0.503-0.235,0.873-0.707,1.109c-0.075,0.049-0.116,0.091-0.126,0.125c0,0.059,0.084,0.125,0.248,0.201
			c0.391,0.202,0.585,0.547,0.585,1.033c0,0.521-0.218,0.891-0.65,1.107c-0.119,0.051-0.183,0.105-0.183,0.164
			c0,0.051,0.063,0.102,0.183,0.152c0.433,0.185,0.65,0.544,0.65,1.081c0,0.479-0.167,0.808-0.507,0.983l-0.272,0.177
			c-0.035,0.007-0.054,0.032-0.054,0.075c0,0.042,0.126,0.138,0.379,0.29c0.302,0.176,0.454,0.486,0.454,0.931
			c0,0.42-0.134,0.728-0.403,0.92l-0.43,0.314v0.025c0,0.06,0.045,0.109,0.132,0.15c0.469,0.211,0.701,0.562,0.701,1.059
			c0,0.849-0.478,1.272-1.436,1.272c-0.528,0-0.884-0.064-1.068-0.189c-0.415-0.218-0.624-0.571-0.624-1.058
			c0-0.461,0.164-0.79,0.493-0.982c0.199-0.117,0.301-0.201,0.301-0.252s-0.093-0.13-0.277-0.238
			c-0.343-0.186-0.517-0.517-0.517-0.996c0-0.495,0.197-0.848,0.594-1.058c0.135-0.059,0.2-0.121,0.2-0.188
			c0-0.05-0.107-0.143-0.328-0.277c-0.311-0.185-0.466-0.512-0.466-0.981c0-0.488,0.206-0.84,0.618-1.058
			c0.116-0.067,0.176-0.118,0.176-0.152v-0.05l-0.328-0.24c-0.311-0.209-0.466-0.528-0.466-0.956c0-0.445,0.164-0.769,0.493-0.97
			l0.277-0.188c0.032-0.034,0.051-0.06,0.051-0.076c0-0.034-0.019-0.067-0.054-0.102l-0.364-0.238
			c-0.269-0.16-0.403-0.466-0.403-0.92c0-0.487,0.221-0.849,0.663-1.083c0.104-0.058,0.158-0.113,0.158-0.164
			c0-0.025-0.009-0.049-0.027-0.074l-0.209-0.102c-0.391-0.184-0.585-0.537-0.585-1.059c0-0.822,0.522-1.233,1.564-1.233
			c0.433,0,0.746,0.06,0.939,0.176c0.418,0.261,0.624,0.622,0.624,1.083c0,0.496-0.235,0.866-0.707,1.109
			c-0.075,0.025-0.116,0.058-0.126,0.1c0,0.06,0.042,0.106,0.126,0.139C209.811,256.987,210.046,257.357,210.046,257.869z
			 M212.469,270.313c0,0.815-0.519,1.224-1.552,1.224c-1.018,0-1.527-0.424-1.527-1.273c0-0.45,0.193-0.791,0.582-1.021
			c0.218-0.136,0.558-0.203,1.021-0.203C211.977,269.04,212.469,269.464,212.469,270.313z M214.967,267.791
			c0,0.387-0.155,0.706-0.465,0.958c-0.194,0.194-0.621,0.291-1.28,0.291c-0.898,0-1.347-0.416-1.347-1.249
			c0-0.463,0.155-0.781,0.466-0.959l0.277-0.151c0.06-0.025,0.09-0.066,0.09-0.127c0-0.041-0.074-0.092-0.221-0.15
			c-0.409-0.178-0.612-0.529-0.612-1.06c0-0.513,0.215-0.874,0.648-1.085c0.167-0.11,0.495-0.164,0.987-0.164
			c0.97,0,1.456,0.424,1.456,1.274c0,0.479-0.196,0.815-0.585,1.009c-0.14,0.059-0.212,0.118-0.212,0.176
			c0,0.086,0.072,0.16,0.212,0.228C214.771,266.991,214.967,267.328,214.967,267.791z M217.427,270.326
			c-0.033,0.808-0.576,1.211-1.627,1.211c-0.961,0-1.438-0.429-1.438-1.287c0-0.791,0.495-1.185,1.489-1.185
			C216.942,269.065,217.468,269.484,217.427,270.326z M219.963,260.348c0,0.514-0.215,0.884-0.645,1.11
			c-0.116,0.051-0.176,0.104-0.176,0.164c0,0.042,0.068,0.101,0.209,0.177c0.405,0.219,0.611,0.571,0.611,1.06
			c0,0.455-0.152,0.774-0.456,0.959l-0.287,0.176c-0.035,0.035-0.054,0.061-0.054,0.076c0,0.067,0.096,0.164,0.287,0.29
			c0.34,0.178,0.51,0.504,0.51,0.984c0,0.488-0.224,0.85-0.665,1.085c-0.104,0.051-0.155,0.101-0.155,0.15
			c0,0.061,0.068,0.118,0.209,0.178c0.405,0.192,0.611,0.537,0.611,1.034c0,0.85-0.531,1.274-1.591,1.274
			c-0.441,0-0.755-0.064-0.942-0.189c-0.397-0.252-0.598-0.614-0.598-1.085c0-0.446,0.222-0.791,0.657-1.034
			c0.119-0.085,0.176-0.143,0.176-0.178c-0.06-0.083-0.194-0.189-0.403-0.314c-0.286-0.169-0.43-0.492-0.43-0.972
			c0-0.43,0.171-0.749,0.508-0.959c0.218-0.135,0.325-0.214,0.325-0.239c-0.009-0.009-0.015-0.02-0.018-0.031
			c-0.006-0.014-0.006-0.028-0.006-0.045l-0.406-0.252c-0.269-0.176-0.403-0.472-0.403-0.883c0-0.496,0.171-0.833,0.508-1.009
			c0.218-0.135,0.325-0.228,0.325-0.278c0-0.041-0.099-0.113-0.299-0.215c-0.354-0.218-0.534-0.555-0.534-1.009
			c0-0.479,0.219-0.841,0.651-1.084c0.122-0.067,0.182-0.127,0.182-0.177c0-0.043-0.071-0.102-0.215-0.178
			c-0.376-0.218-0.567-0.562-0.567-1.033c0-0.488,0.174-0.833,0.517-1.034c0.194-0.11,0.293-0.189,0.293-0.24
			s-0.069-0.102-0.203-0.151c-0.403-0.193-0.606-0.529-0.606-1.01c0-0.875,0.483-1.312,1.451-1.312c0.521,0,0.868,0.06,1.035,0.178
			c0.394,0.227,0.594,0.578,0.594,1.059c0,0.513-0.182,0.858-0.543,1.034c-0.17,0.084-0.254,0.151-0.254,0.202
			c0,0.06,0.068,0.122,0.203,0.189c0.394,0.185,0.594,0.538,0.594,1.06c0,0.487-0.182,0.832-0.543,1.033
			c-0.186,0.102-0.277,0.169-0.277,0.203c0,0.059,0.074,0.126,0.227,0.202C219.763,259.524,219.963,259.869,219.963,260.348z"/>
		<path d="M225.953,267.74c0,0.361-0.126,0.654-0.376,0.876c-0.254,0.224-0.582,0.334-0.985,0.334h-0.241
			c-0.974,0-1.463-0.402-1.463-1.21c0-0.437,0.152-0.756,0.454-0.959l0.292-0.177c0.033-0.032,0.048-0.058,0.048-0.075
			c0-0.067-0.023-0.101-0.077-0.101l-0.248-0.164c-0.311-0.201-0.469-0.525-0.469-0.972c0-0.453,0.149-0.781,0.444-0.984
			l0.299-0.163c0.036-0.025,0.051-0.06,0.051-0.102c-0.006-0.041-0.023-0.066-0.051-0.076l-0.403-0.303
			c-0.227-0.185-0.34-0.462-0.34-0.832c0-0.496,0.158-0.824,0.469-0.983c0.218-0.127,0.325-0.211,0.325-0.253
			c0-0.051-0.015-0.083-0.051-0.101l-0.299-0.214c-0.295-0.21-0.444-0.522-0.444-0.935c0-0.471,0.179-0.803,0.534-0.996
			c0.173-0.101,0.26-0.181,0.26-0.239c0-0.025-0.006-0.051-0.023-0.076l-0.353-0.227c-0.277-0.194-0.418-0.497-0.418-0.908
			c0-0.37,0.132-0.683,0.394-0.935c0.263-0.252,0.582-0.365,0.955-0.34l0.319,0.037c0.932,0.076,1.397,0.48,1.397,1.212
			c0,0.462-0.117,0.774-0.353,0.934l-0.367,0.227c-0.032,0.033-0.051,0.059-0.051,0.076c0.009,0.042,0.027,0.075,0.051,0.101
			l0.305,0.215c0.277,0.185,0.415,0.492,0.415,0.92c0,0.438-0.138,0.75-0.415,0.935l-0.305,0.214
			c-0.032,0.034-0.051,0.06-0.051,0.075c0,0.059,0.11,0.151,0.328,0.278c0.296,0.176,0.442,0.495,0.442,0.958
			c0,0.455-0.146,0.774-0.442,0.959l-0.277,0.176c-0.032,0.035-0.051,0.067-0.051,0.102c0.009,0.042,0.027,0.076,0.051,0.102
			l0.254,0.163c0.311,0.185,0.466,0.513,0.466,0.984c0,0.521-0.215,0.884-0.642,1.085c-0.084,0.051-0.129,0.093-0.129,0.126
			c0,0.05,0.06,0.11,0.18,0.177C225.756,266.908,225.953,267.262,225.953,267.74z M233.345,270.199c0,0.363-0.122,0.658-0.37,0.89
			c-0.25,0.231-0.575,0.348-0.979,0.348h-5.449c-0.311,0-0.588-0.122-0.827-0.365c-0.238-0.245-0.357-0.527-0.357-0.847
			c0-0.335,0.122-0.617,0.363-0.844c0.245-0.228,0.556-0.341,0.935-0.341h5.375C232.909,269.04,233.345,269.427,233.345,270.199z
			 M233.372,255.416c0,0.808-0.475,1.211-1.427,1.211h-4.516c-0.772,0-1.256-0.051-1.45-0.151c-0.396-0.21-0.594-0.563-0.594-1.06
			c0-0.32,0.11-0.601,0.334-0.846c0.224-0.243,0.48-0.365,0.776-0.365h5.59c0.37,0,0.674,0.114,0.919,0.346
			S233.372,255.071,233.372,255.416z M235.843,262.833c0,0.455-0.149,0.774-0.447,0.959l-0.347,0.201
			c-0.018,0.01-0.026,0.035-0.026,0.076c0.009,0.042,0.026,0.079,0.054,0.113l0.305,0.177c0.307,0.185,0.462,0.487,0.462,0.908
			c0,0.479-0.161,0.812-0.489,0.997c-0.221,0.125-0.331,0.215-0.331,0.265c0,0.06,0.102,0.143,0.305,0.252
			c0.346,0.193,0.516,0.513,0.516,0.959c0,0.824-0.489,1.235-1.468,1.235c-1.081,0-1.621-0.402-1.621-1.21
			c0-0.479,0.17-0.816,0.517-1.009c0.167-0.092,0.251-0.168,0.251-0.228c-0.006-0.042-0.024-0.075-0.048-0.101l-0.305-0.215
			c-0.277-0.185-0.415-0.492-0.415-0.921c0-0.513,0.188-0.857,0.567-1.034l0.051-0.025c0.116-0.06,0.176-0.105,0.176-0.139
			c0-0.051-0.11-0.143-0.328-0.277c-0.311-0.185-0.466-0.514-0.466-0.984s0.17-0.808,0.517-1.009
			c0.185-0.109,0.277-0.186,0.277-0.228c-0.009-0.051-0.026-0.075-0.051-0.075l-0.254-0.19c-0.325-0.159-0.489-0.487-0.489-0.983
			c0-0.42,0.155-0.728,0.466-0.92l0.277-0.189c0.033-0.033,0.051-0.067,0.051-0.102c0-0.05-0.119-0.142-0.352-0.277
			c-0.296-0.177-0.442-0.479-0.442-0.908c0-0.841,0.483-1.262,1.457-1.262c0.504,0,0.838,0.051,0.999,0.152
			c0.421,0.261,0.633,0.613,0.633,1.06c0,0.479-0.176,0.815-0.525,1.008c-0.196,0.127-0.295,0.203-0.295,0.228
			c0,0.034,0.018,0.068,0.054,0.102l0.346,0.215c0.281,0.201,0.421,0.509,0.421,0.92c0,0.505-0.19,0.85-0.576,1.034
			c-0.161,0.084-0.244,0.148-0.244,0.189c0,0.059,0.045,0.109,0.128,0.151C235.613,261.977,235.843,262.337,235.843,262.833z"/>
		<path d="M249.416,255.409c0,0.352-0.122,0.646-0.364,0.886c-0.244,0.237-0.546,0.357-0.91,0.357h-6.317
			c-0.263,0-0.392,0.034-0.392,0.102c0,0.066,0.042,0.134,0.122,0.201c0.305,0.286,0.457,0.589,0.457,0.908
			c0,0.488-0.17,0.834-0.507,1.036c-0.191,0.108-0.287,0.185-0.287,0.227c0.015,0.067,0.039,0.102,0.062,0.102l0.308,0.24
			c0.283,0.201,0.424,0.501,0.424,0.896c0,0.429-0.141,0.74-0.421,0.935l-0.373,0.264c0,0.009-0.003,0.016-0.006,0.02
			c-0.006,0.005-0.012,0.015-0.021,0.031c0,0.042,0.116,0.135,0.346,0.277c0.316,0.203,0.475,0.522,0.475,0.961
			c0,0.479-0.167,0.815-0.498,1.009c-0.197,0.11-0.296,0.186-0.296,0.229c0,0.059,0.081,0.13,0.242,0.214
			c0.37,0.187,0.552,0.531,0.552,1.035c0,0.446-0.235,0.821-0.704,1.124c-0.06,0.034-0.09,0.071-0.09,0.113
			c0,0.043,0.122,0.147,0.37,0.316c0.283,0.185,0.424,0.492,0.424,0.921c0,0.489-0.209,0.843-0.627,1.061
			c-0.137,0.067-0.209,0.122-0.218,0.164c0,0.06,0.03,0.102,0.09,0.127l0.257,0.176c0.331,0.229,0.498,0.539,0.498,0.936
			c0,0.808-0.478,1.212-1.43,1.212c-0.465,0-0.772-0.034-0.925-0.102c-0.489-0.21-0.734-0.588-0.734-1.136
			c0-0.546,0.206-0.899,0.618-1.06c0.107-0.041,0.164-0.092,0.164-0.15c0-0.06-0.113-0.156-0.341-0.291
			c-0.295-0.176-0.441-0.495-0.441-0.958c0-0.438,0.146-0.758,0.441-0.959c0.228-0.118,0.341-0.202,0.341-0.253
			c0-0.05-0.009-0.083-0.027-0.1l-0.364-0.24c-0.263-0.159-0.391-0.458-0.391-0.896c0-0.462,0.164-0.8,0.489-1.01l0.266-0.126
			c0.033-0.041,0.051-0.08,0.051-0.113c0-0.041-0.08-0.102-0.238-0.178c-0.379-0.233-0.567-0.588-0.567-1.059
			c0-0.463,0.179-0.799,0.54-1.009c0.177-0.118,0.266-0.194,0.266-0.228c0-0.034-0.045-0.076-0.137-0.126
			c-0.448-0.211-0.669-0.584-0.669-1.123c0-0.496,0.188-0.837,0.567-1.021c0.158-0.084,0.238-0.155,0.238-0.215
			c0-0.042-0.089-0.109-0.266-0.202c-0.361-0.192-0.54-0.529-0.54-1.009c0-0.471,0.155-0.799,0.466-0.984
			c0.209-0.125,0.316-0.209,0.316-0.252c0-0.059-0.019-0.104-0.051-0.139l-0.316-0.202c-0.277-0.185-0.415-0.487-0.415-0.908
			c0-0.546,0.221-0.916,0.669-1.108c0.199-0.086,0.701-0.127,1.501-0.127h7.1c0.337,0,0.627,0.119,0.865,0.357
			C249.297,254.802,249.416,255.084,249.416,255.409z M249.416,262.833c0,0.841-0.475,1.262-1.424,1.262h-1.552
			c-0.068,0-0.102,0.038-0.102,0.113c0,0.051,0.06,0.118,0.177,0.202c0.277,0.185,0.417,0.487,0.417,0.908
			c0,0.841-0.478,1.261-1.426,1.261c-0.496,0-0.851-0.058-1.06-0.176c-0.397-0.235-0.594-0.589-0.594-1.06
			c0-0.328,0.104-0.597,0.316-0.807l0.277-0.229c0.009-0.017,0.015-0.031,0.018-0.043c0.006-0.014,0.012-0.024,0.021-0.032
			c0-0.092-0.039-0.139-0.114-0.139h-0.569c-0.293,0-0.562-0.124-0.8-0.373c-0.239-0.247-0.361-0.526-0.361-0.838
			c0-0.345,0.116-0.633,0.349-0.864c0.23-0.231,0.52-0.347,0.863-0.347h4.139c0.445,0,0.773,0.084,0.982,0.253
			C249.27,262.169,249.416,262.472,249.416,262.833z M249.416,267.791c0,0.488-0.206,0.85-0.618,1.085
			c-0.185,0.109-0.486,0.164-0.907,0.164c-0.411,0-0.707-0.046-0.883-0.139c-0.445-0.22-0.669-0.573-0.669-1.06
			c0-0.488,0.215-0.851,0.645-1.085c0.191-0.102,0.487-0.152,0.881-0.152c0.447,0,0.767,0.051,0.961,0.152
			C249.219,266.975,249.416,267.319,249.416,267.791z M251.891,260.373c0,0.38-0.135,0.686-0.403,0.921
			c-0.271,0.236-0.615,0.354-1.036,0.354c-1.086,0-1.626-0.425-1.626-1.274c0-0.42,0.134-0.719,0.403-0.895l0.289-0.189
			c0.051-0.042,0.077-0.084,0.077-0.127v-0.05l-0.051-0.051l-0.292-0.177c-0.283-0.186-0.427-0.479-0.427-0.883
			c0-0.857,0.504-1.287,1.513-1.287c1.036,0,1.553,0.404,1.553,1.211c0,0.421-0.155,0.74-0.469,0.959l-0.251,0.177
			c-0.042,0.025-0.068,0.059-0.074,0.101c0,0.06,0.074,0.131,0.227,0.215C251.699,259.562,251.891,259.895,251.891,260.373z
			 M251.863,270.238c0,0.833-0.486,1.249-1.462,1.249c-1.051,0-1.576-0.399-1.576-1.198c0-0.816,0.469-1.224,1.411-1.224
			C251.323,269.065,251.863,269.456,251.863,270.238z"/>
		<path d="M260.858,262.833c0,0.841-0.466,1.262-1.399,1.262h-2.221c-0.051,0-0.074,0.028-0.074,0.088
			c0,0.051,0.057,0.126,0.173,0.228c0.271,0.219,0.405,0.529,0.405,0.934c0,0.471-0.161,0.794-0.483,0.972l-0.274,0.164
			c-0.015,0.017-0.026,0.042-0.036,0.074c0,0.051,0.013,0.086,0.036,0.102l0.322,0.24c0.29,0.202,0.436,0.508,0.436,0.921
			c0,0.445-0.227,0.814-0.683,1.11c-0.066,0.023-0.102,0.062-0.111,0.113c0,0.05,0.096,0.135,0.284,0.252
			c0.34,0.211,0.51,0.537,0.51,0.983c0,0.505-0.221,0.875-0.665,1.11c-0.167,0.084-0.486,0.127-0.955,0.127
			c-0.979,0-1.472-0.412-1.472-1.235c0-0.478,0.236-0.839,0.708-1.083c0.068-0.05,0.101-0.092,0.101-0.126
			c0-0.058-0.062-0.122-0.188-0.189c-0.412-0.218-0.621-0.57-0.621-1.058c0-0.486,0.191-0.831,0.57-1.033
			c0.158-0.074,0.238-0.143,0.238-0.201c-0.009-0.042-0.023-0.076-0.05-0.102l-0.341-0.213c-0.277-0.202-0.418-0.517-0.418-0.945
			c0-0.495,0.236-0.865,0.708-1.108c0.041-0.033,0.083-0.071,0.125-0.113c0-0.042-0.024-0.076-0.074-0.102l-0.215-0.125
			c-0.361-0.186-0.544-0.53-0.544-1.033c0-0.529,0.215-0.891,0.645-1.083c0.111-0.042,0.164-0.093,0.164-0.152
			c0-0.042-0.089-0.111-0.265-0.213c-0.361-0.192-0.544-0.537-0.544-1.033c0-0.504,0.183-0.848,0.544-1.032
			c0.176-0.085,0.265-0.152,0.265-0.201c0-0.019-0.009-0.044-0.023-0.076l-0.316-0.177c-0.311-0.185-0.469-0.513-0.469-0.983
			c0-0.461,0.158-0.789,0.469-0.981l0.29-0.176c0.032-0.019,0.05-0.047,0.05-0.088c0-0.035-0.018-0.067-0.05-0.102l-0.316-0.177
			c-0.293-0.168-0.442-0.487-0.442-0.958c0-0.838,0.517-1.259,1.546-1.259c1.03,0,1.546,0.41,1.546,1.232
			c0,0.486-0.202,0.846-0.608,1.08c-0.132,0.076-0.203,0.127-0.212,0.15c0,0.069,0.021,0.106,0.062,0.114l0.299,0.201
			c0.307,0.21,0.459,0.528,0.459,0.956c0,0.536-0.212,0.897-0.633,1.081c-0.107,0.041-0.161,0.083-0.161,0.125
			c0,0.051,0.013,0.085,0.039,0.102l0.308,0.188c0.299,0.228,0.447,0.559,0.447,0.994c0,0.368-0.095,0.638-0.289,0.805
			s-0.289,0.272-0.289,0.314c0,0.084,0.032,0.125,0.098,0.125h2.373c0.328,0,0.614,0.118,0.859,0.354
			C260.736,262.21,260.858,262.497,260.858,262.833z M262.712,260.298c0,0.866-0.517,1.299-1.549,1.299
			c-1.036,0-1.553-0.416-1.553-1.249c0-0.823,0.517-1.235,1.553-1.235C262.195,259.112,262.712,259.507,262.712,260.298z
			 M262.712,265.293c0,0.858-0.508,1.286-1.525,1.286c-1.051,0-1.576-0.411-1.576-1.235c0-0.851,0.508-1.274,1.525-1.274
			C262.187,264.069,262.712,264.477,262.712,265.293z M265.197,257.851c0,0.841-0.492,1.262-1.474,1.262
			c-0.448,0-0.782-0.06-1.012-0.178c-0.412-0.227-0.618-0.58-0.618-1.059c0-0.833,0.525-1.249,1.579-1.249
			C264.69,256.627,265.197,257.034,265.197,257.851z M265.197,267.791c0,0.361-0.137,0.681-0.414,0.958
			c-0.186,0.194-0.633,0.291-1.338,0.291c-0.388,0-0.704-0.116-0.951-0.348c-0.251-0.231-0.373-0.523-0.373-0.876
			c0-0.825,0.543-1.237,1.626-1.237c0.43,0,0.779,0.112,1.048,0.335C265.063,267.138,265.197,267.429,265.197,267.791z
			 M267.672,255.365c0,0.378-0.144,0.699-0.43,0.958c-0.212,0.186-0.627,0.278-1.251,0.278c-0.922,0-1.385-0.396-1.385-1.186
			c0-0.547,0.221-0.925,0.669-1.135c0.185-0.086,0.478-0.127,0.88-0.127C267.167,254.154,267.672,254.559,267.672,255.365z
			 M267.672,270.275c0,0.514-0.2,0.875-0.594,1.085c-0.194,0.102-0.502,0.152-0.923,0.152c-0.343,0-0.611-0.034-0.806-0.102
			c-0.495-0.194-0.743-0.563-0.743-1.11c0-0.319,0.11-0.597,0.335-0.832c0.221-0.236,0.489-0.361,0.799-0.379
			C267.027,269.015,267.672,269.41,267.672,270.275z"/>
	</g>
	<g>
		<path d="M202.636,131.836c-0.546-0.503-1.015-0.71-1.43-0.884c-4.146-1.731-8.643,12.513-8.643,12.513
			c-1.057,3.622,1.08,3.515,1.08,3.515c1.958,0.124,4.85-3.144,5.408-4.007c0.561-0.865,1.402-3.538,1.402-3.538
			c0.645-2.168,1.411-4.447,2.253-6.769l-0.003,0.001C202.913,132.119,202.689,131.895,202.636,131.836z"/>
		<path d="M154.554,142.583c0.06-0.627-0.34-0.75-0.698-0.605c-0.349,0.14-0.752,0.502-0.752,0.502
			c-4.035,3.687-6.822,12.084-7.027,12.716c0,0.001-0.048,0.123,0.036,0.173c0.035,0.021,0.09,0.018,0.192-0.068
			c0,0-0.002,0.004-0.003,0.006C154.05,148.614,154.554,142.583,154.554,142.583z"/>
		<path d="M124.597,144.897c-0.837,0.14-1.145,1.511-1.145,1.511c-0.76,3.146,1.312,4.438,1.312,4.438
			c0.195,0.119,0.357,0.208,0.528,0.291c0.052,0.021,0.315,0.104,0.409-0.243c0.731-2.789,0.598-4.048,0.598-4.048
			C126.044,144.703,124.597,144.897,124.597,144.897z"/>
		<path d="M220.709,127.805c-0.224-0.326-0.412,0.117-0.412,0.117l0,0c-1.865,5.02-3.557,8.059-4.145,9.048
			c0,0-0.215,0.392-0.078,0.707c1.283,2.814,5.095,1.953,5.095,1.953c4.017-1.17,3.188-5.177,3.188-5.177
			C223.896,132.668,222.02,129.72,220.709,127.805z"/>
		<path d="M237.992,136.496c-0.239,0-0.406,0.024-0.502,0.048v1.119h0.43c0.499,0,0.904-0.167,0.904-0.572
			C238.824,136.734,238.562,136.496,237.992,136.496z"/>
		<path d="M238.087,134.71h-0.023c-1.692,0-3.002,1.405-3.002,3.119c0,1.738,1.31,3.119,3.05,3.119
			c1.689,0.023,2.976-1.381,2.976-3.096C241.087,136.115,239.801,134.71,238.087,134.71z M239.016,139.853
			c-0.119-0.143-0.191-0.477-0.311-0.953c-0.071-0.404-0.311-0.596-0.809-0.596h-0.43v1.548h-0.904v-3.905
			c0.357-0.047,0.856-0.119,1.501-0.119c0.737,0,1.071,0.119,1.331,0.31c0.238,0.166,0.406,0.452,0.406,0.833
			c0,0.477-0.358,0.786-0.81,0.929v0.048c0.38,0.12,0.57,0.429,0.689,0.952c0.12,0.595,0.215,0.81,0.287,0.953H239.016z"/>
		<path d="M280.746,193.387V66.911c0-7.332-6.667-9.665-6.667-9.665L158.479,29.278c-8.792-1.833-16.205,0-16.205,0L28.292,57.332
			l-2.302,0.557c0,0-6.27,2.194-6.647,9.015c-0.076,0.775-0.046,1.269-0.046,1.269l-0.043,123.381
			c0,9.664,7.708,10.999,7.708,10.999l115.478,27.134c7.666,1.5,16.039,0,16.039,0l114.437-27.134
			C280.913,201.053,280.746,193.387,280.746,193.387z M190.43,47.213c0.003,0.02,0.003,0.04,0.006,0.06
			C190.433,47.251,190.433,47.234,190.43,47.213L190.43,47.213z M186.117,91.828L186.117,91.828l3.465-22.873
			c0.003-0.013,0.152-0.885,0.91-0.885h8.992c0.775,0,0.925,0.878,0.925,0.878l3.546,20.853c0.155,0.922-0.759,1.025-0.759,1.025
			v0.002c-1.88,0.178-3.736,0.362-5.568,0.551v-0.001c-0.734,0.075-0.898-0.684-0.898-0.684l0,0l-0.292-1.916
			c-0.412-2.658-0.824-6.301-1.197-10.489v0.001c-0.06-0.674-0.188-0.682-0.197-0.682c-0.128,0-0.176,0.34-0.193,0.54
			c-0.379,5.137-0.597,7.062-1.03,10.63L193.521,91c-0.11,0.801-0.862,0.912-0.862,0.912l0.003,0.001
			c-1.97,0.219-3.913,0.443-5.826,0.674v-0.002C186.004,92.685,186.117,91.828,186.117,91.828z M173.442,68.9
			c0.023-0.188,0.152-0.824,0.871-0.824l-0.003-0.006h6.401l-0.003,0.006c0.726,0,0.851,0.652,0.872,0.832v23.214
			c0,1.138-0.859,1.23-0.859,1.23v0.002c-2.221,0.29-4.402,0.587-6.542,0.892v-0.002c-0.717,0.102-0.737-0.705-0.737-0.705V68.9z
			 M146.485,68.951c0,0,0.025-0.848,0.899-0.88h9.645c6.58,0,9.267,0.668,11.036,2.895c1.91,2.301,2.405,5.195,2.405,14.25v8.804
			c0,0.755-0.74,0.876-0.74,0.876l0.003,0.002c-2.244,0.338-4.449,0.683-6.604,1.035v0c-0.74,0.12-0.794-0.808-0.794-0.808V82.47
			c0-6.531-0.99-7.867-5.729-7.867h-1.245c-0.739,0-0.736,0.841-0.736,0.841v21.043c0,0.936-0.848,1.064-0.848,1.064v0.001
			c-2.2,0.404-4.349,0.813-6.447,1.229v-0.002c-0.8,0.158-0.844-0.859-0.844-0.859V68.951z M121.934,68.951
			c0,0,0.005-0.845,0.871-0.88h20.039c0,0,0.953,0.02,0.953,0.88v6.207c0,0.856-0.953,0.855-0.953,0.855h-11.933
			c-0.854,0-0.84,0.886-0.84,0.886V87.77c0,0-0.001,0.787,0.8,0.787h11.141c0,0,1.007,0.028,1.007,0.964v5.285
			c0,0.945-1.007,0.95-1.007,0.95h-11.141c-0.794,0-0.8,0.754-0.8,0.754v5.14c0,0.906-0.841,1.127-0.841,1.127l0,0
			c-2.233,0.549-4.391,1.101-6.475,1.655v-0.001c-0.806,0.213-0.822-0.731-0.822-0.731V68.951z M84.929,68.951
			c0,0,0.035-0.88,0.876-0.88h-0.001h10.9c0,0,0.749,0.001,0.889,0.879l2.478,15.599c0.526,3.175,0.93,6.418,1.383,11.097v0.001
			c0.016,0.174,0.033,0.354,0.051,0.531c0.028,0.182,0.069,0.263,0.119-0.082c0.016-0.147,0.033-0.303,0.048-0.445
			c0.001-0.002,0.001-0.004,0.001-0.005c0.549-5.043,0.778-6.997,1.44-11.097l2.478-15.599c0.001-0.007,0.148-0.879,0.928-0.879
			h11.005c0,0,0.873,0.015,0.873,0.88v35.7c0,1.02-0.95,1.239-0.95,1.239l0.001,0.001c-1.992,0.566-3.909,1.132-5.753,1.695v-0.002
			c-1.062,0.323-1.082-0.951-1.082-0.951v-14.81c0-2.219,0.094-6.497,0.22-10.166c-0.009-0.001-0.021-0.005-0.021-0.005
			s0.066-0.931-0.17-0.947c0,0-0.301-0.078-0.392,0.879l-0.009-0.013c-0.673,3.959-1.158,6.828-1.68,9.731l-3.011,17.207
			c-0.192,1.096-1.111,1.401-1.111,1.401l-0.001,0.002c-1.719,0.578-3.361,1.151-4.925,1.716v-0.001
			c-1.088,0.39-1.403-0.884-1.406-0.894l-3.483-20.1c-0.283-1.929-0.637-3.859-0.991-5.789l-0.565-3.414
			c-0.018-0.1-0.034-0.195-0.051-0.294c-0.124-0.473-0.316-0.432-0.316-0.432c-0.192,0.013-0.184,0.63-0.174,0.858l0.003,0.079
			c0,0.001,0,0.009,0,0.009l0.042,0.893c0.071,1.632,0.142,5.493,0.142,8.09v22.125c0,1.447-1.163,1.923-1.163,1.923l0.001,0.002
			c-1.99,0.812-3.815,1.596-5.466,2.339v-0.001c-1.125,0.501-1.156-0.987-1.156-0.987V68.951z M100.239,202.761
			c0.018,2.345-1.29,2.34-1.29,2.34c-5.832,0.12-9.287-3.288-9.287-3.288c-2.255-1.949-1.674-5.849-1.674-5.849
			c1.998-13.814,9.287-30.698,9.287-30.698c7.732-19.23,20.218-38.544,23.818-43.949c0.12-0.18,0.236-0.354,0.122-0.517
			c-0.078-0.112-0.218-0.092-0.302-0.066C86.925,133.831,76.7,145.228,76.7,145.228c-1.702,1.577-2.723,0.492-3.221-0.962
			c-0.365-1.064-0.36-2.355-0.36-2.355c-0.015-6.48,2.222-10.414,3.492-12.805c1.271-2.392,4.221-4.244,4.221-4.244
			c40.96-22.295,120.819-30.371,120.819-30.371c3.128-0.323,3.949,0.233,3.949,0.233c1.277,0.797,2.064,1.794,2.064,1.794
			c0.759,1.151-1.247,1.484-1.247,1.484c-37.23,6.159-66.367,15.314-75.165,18.937c-0.547,0.226-0.946,0.703-1.044,0.845
			c-12.45,19.316-24.083,52.013-24.083,52.013C99.982,187.63,100.239,202.761,100.239,202.761z M229.946,139.747
			c-1.74,4.882-8.604,6.119-8.604,6.119c-5.363,0.983-7.685-2.323-8.252-3.316c-0.131-0.273-0.382,0-0.382,0v-0.001
			c-3.549,4.123-5.584,6.151-5.584,6.151c-2.614,2.417-4.841,2.53-4.841,2.53c-1.704,0.104-2.507-1.273-2.79-1.994v0.001
			c-0.164-0.507-0.612,0-0.612,0v-0.001c-5.604,5.775-9.335,5.7-9.335,5.7c-1.739-0.067-2.536-1.277-2.996-2.844l-0.003,0.001
			c-0.144-0.428-0.391-0.168-0.492-0.034c-0.016,0.02-0.027,0.039-0.042,0.059c-0.003,0.006-0.006,0.009-0.006,0.009
			c-1.851,2.615-3.814,4.508-3.814,4.508c-2.784,2.586-5.271,1.992-5.271,1.992c-1.937-0.303-2.555-1.467-2.691-1.681
			c-2.227-3.449,5.303-18.589,5.303-18.589c0.624-1.307,0.353-1.697,0.353-1.697c-1.19-0.595-5.282,2.854-5.282,2.854
			c-2.621,2.303-3.993,4.459-5.265,7.79c-0.245,0.642-0.331,1.053-0.331,1.053c-1.511,6.495-2.91,11.64-2.91,11.64
			c-0.537,1.972-2.05,3.001-2.05,3.001c-3.755,2.657-5.96,2.221-5.96,2.221c-1.135-0.236-0.209-2.261-0.209-2.261
			c1.376-3.278,2.516-6.669,3.539-9.828c0.433-1.337-0.337-0.042-0.337-0.042v-0.003c-5.387,8.928-12.14,15.24-12.14,15.24
			c-2.788,2.519-6.429,1.343-6.632,1.277c-1.295-0.339-2.19-1.576-2.607-2.765h-0.001c-0.124-0.33-0.406,0.029-0.406,0.029
			c-3.251,4.172-6.768,7.351-6.768,7.351c-2.032,1.854-4.087,1.896-4.087,1.896c-2.586,0.05-2.443-3.779-2.443-3.779
			c0.397-6.677,5.796-14.91,5.796-14.91c0.263-0.392-0.058-0.78-0.058-0.78c-0.158-0.205-0.51-0.146-0.51-0.146
			c-1.217,0.267-2.288,0.39-3.212,0.427h0.002c-0.449,0.025-0.653,0.542-0.653,0.542h0c-6.517,17.03-12.818,21.787-12.818,21.787
			c-1.951,1.613-3.417,1.413-3.417,1.413c-4.688-0.486-4.182-5.019-4.182-5.019c0.013-1.083,1.174-1.413,1.174-1.413
			c9.274-3.411,14.788-15.886,14.788-15.886c0.199-0.428,0.383-0.837,0.558-1.237c0.322-0.765-0.176-1.036-0.176-1.036l0.004-0.005
			c-6.942-4.071-2.988-12.535-2.988-12.535c1.384-2.874,3.955-3.362,3.955-3.362c1.947-0.536,3.417,0.245,3.417,0.245
			c4.174,1.753,1.902,10.769,1.902,10.769c-0.046,0.229-0.065,0.329-0.087,0.418c-0.022,0.174,0.013,0.328,0.241,0.322
			c2.854-0.257,4.997-1.764,4.997-1.764c0.957-0.634,1.385-0.142,1.743,0.342c0.358,0.483,1.087,2.68,1.25,3.41
			c0.164,0.731-0.341,1.658-0.341,1.658c-2.673,4.385-5.316,9.696-5.316,9.696c-0.233,0.513-0.397,0.951-0.517,1.34
			c-0.101,0.385-0.431,1.874,0.494,2.046c0,0,0.76,0.136,2.001-0.903c0,0,2.934-2.526,4.625-4.448c0,0,0.376-0.365,0.404-1.094h0
			c0.113-5.644,2.633-11.551,2.633-11.551c4.971-10.74,10.901-12.177,10.901-12.177c2.569-0.991,4.446,0,4.446,0
			c1.45,0.654,1.486,2.327,1.486,2.327c-0.036,5.438-3.677,10.755-3.677,10.755c-3.104,4.755-6.606,7.579-8.223,8.913
			c0,0-0.26,0.233-0.157,0.52c0.403,1.164,0.838,1.461,0.838,1.461c1.154,0.819,3.562-1.779,3.562-1.779
			c6.938-7.075,12.662-18.062,14.603-22.089c0.486-1.009,0.566-1.407,0.572-1.421c0.212-0.798,0.361-2.283,0.361-2.283
			c0.09-1.474,4.312-2.849,4.312-2.849c2.199-0.583,1.444,2.976,1.444,2.976c-0.2,0.947-0.182,0.769-0.469,1.992l-0.113,0.477
			c0,0-0.167,0.701,0.113,0.259c2.316-3.239,5.444-5.74,5.444-5.74c4.056-3.011,6.592-1.359,6.592-1.359
			c3.035,1.585,0.039,8.442,0.039,8.442c-2.161,5.279-3.044,8.299-3.044,8.299c-1.173,3.714,0.292,3.839,0.292,3.839
			c1.34,0.238,3.764-2.646,4.865-4.088c0.322-0.414,0.37-1.005,0.37-1.005l0,0c0.235-2.335,0.689-4.219,0.689-4.219
			c3.805-13.753,12.203-16.39,12.203-16.39c2.405-0.815,4.461,0.108,5.464,0.981v-0.001c0,0,0.328,0.284,0.522-0.203l0,0
			c5.771-14.347,13.093-28.384,13.093-28.384c1.11-2.119,2.614-2.863,2.614-2.863c5.443-2.949,8.294-0.975,8.294-0.975
			c1.214,0.63-1.615,3.873-1.615,3.873c-11.164,12.32-22.419,43.442-22.419,43.442c-0.752,2.19,0.263,2.383,0.263,2.383
			c1.232,0.373,4.182-3.22,4.182-3.22c3.271-3.764,7.275-13.368,8.437-16.622c0.155-0.436,0.009-0.854,0.009-0.854l0.003-0.001
			c-0.984-3.113-0.155-5.464-0.155-5.464c1.654-5.004,5.653-4.187,5.653-4.187c3.799,0.701,1.423,8.849,1.423,8.849
			c-0.316,1.036-0.08,1.644-0.08,1.644c1.193,3.062,4.527,10.065,4.527,10.065C230.787,137.083,229.946,139.747,229.946,139.747z
			 M238.087,141.757c-2.238,0-4.025-1.737-4.025-3.928c0-2.19,1.787-3.904,4.025-3.904h0.024c2.211,0,3.975,1.714,3.975,3.904
			C242.086,140.02,240.322,141.757,238.087,141.757z"/>
	</g>
</g>
</svg>
